<svg width="24" height="24" viewBox="0 0 24 24" fill="none" xmlns="http://www.w3.org/2000/svg">
<path fill-rule="evenodd" clip-rule="evenodd" d="M10.75 2H12.75C14.636 2 15.578 2 16.164 2.586C16.75 3.172 16.75 4.114 16.75 6V21.25H21.75C21.9489 21.25 22.1397 21.329 22.2803 21.4697C22.421 21.6103 22.5 21.8011 22.5 22C22.5 22.1989 22.421 22.3897 22.2803 22.5303C22.1397 22.671 21.9489 22.75 21.75 22.75H1.75C1.55109 22.75 1.36032 22.671 1.21967 22.5303C1.07902 22.3897 1 22.1989 1 22C1 21.8011 1.07902 21.6103 1.21967 21.4697C1.36032 21.329 1.55109 21.25 1.75 21.25H6.75V6C6.75 4.114 6.75 3.172 7.336 2.586C7.922 2 8.864 2 10.75 2ZM11.75 4.25C11.9489 4.25 12.1397 4.32902 12.2803 4.46967C12.421 4.61032 12.5 4.80109 12.5 5V6.25H13.75C13.9489 6.25 14.1397 6.32902 14.2803 6.46967C14.421 6.61032 14.5 6.80109 14.5 7C14.5 7.19891 14.421 7.38968 14.2803 7.53033C14.1397 7.67098 13.9489 7.75 13.75 7.75H12.5V9C12.5 9.19891 12.421 9.38968 12.2803 9.53033C12.1397 9.67098 11.9489 9.75 11.75 9.75C11.5511 9.75 11.3603 9.67098 11.2197 9.53033C11.079 9.38968 11 9.19891 11 9V7.75H9.75C9.55109 7.75 9.36032 7.67098 9.21967 7.53033C9.07902 7.38968 9 7.19891 9 7C9 6.80109 9.07902 6.61032 9.21967 6.46967C9.36032 6.32902 9.55109 6.25 9.75 6.25H11V5C11 4.80109 11.079 4.61032 11.2197 4.46967C11.3603 4.32902 11.5511 4.25 11.75 4.25ZM9 12C9 11.8011 9.07902 11.6103 9.21967 11.4697C9.36032 11.329 9.55109 11.25 9.75 11.25H13.75C13.9489 11.25 14.1397 11.329 14.2803 11.4697C14.421 11.6103 14.5 11.8011 14.5 12C14.5 12.1989 14.421 12.3897 14.2803 12.5303C14.1397 12.671 13.9489 12.75 13.75 12.75H9.75C9.55109 12.75 9.36032 12.671 9.21967 12.5303C9.07902 12.3897 9 12.1989 9 12ZM9 15C9 14.8011 9.07902 14.6103 9.21967 14.4697C9.36032 14.329 9.55109 14.25 9.75 14.25H13.75C13.9489 14.25 14.1397 14.329 14.2803 14.4697C14.421 14.6103 14.5 14.8011 14.5 15C14.5 15.1989 14.421 15.3897 14.2803 15.5303C14.1397 15.671 13.9489 15.75 13.75 15.75H9.75C9.55109 15.75 9.36032 15.671 9.21967 15.5303C9.07902 15.3897 9 15.1989 9 15ZM11.75 18.25C11.9489 18.25 12.1397 18.329 12.2803 18.4697C12.421 18.6103 12.5 18.8011 12.5 19V21.25H11V19C11 18.8011 11.079 18.6103 11.2197 18.4697C11.3603 18.329 11.5511 18.25 11.75 18.25Z" fill="#06B8EE"/>
<path opacity="0.5" d="M20.913 5.889C21.25 6.393 21.25 7.095 21.25 8.5V21.25H21.75C21.9489 21.25 22.1397 21.329 22.2803 21.4697C22.421 21.6103 22.5 21.8011 22.5 22C22.5 22.1989 22.421 22.3897 22.2803 22.5303C22.1397 22.671 21.9489 22.75 21.75 22.75H1.75C1.55109 22.75 1.36032 22.671 1.21967 22.5303C1.07902 22.3897 1 22.1989 1 22C1 21.8011 1.07902 21.6103 1.21967 21.4697C1.36032 21.329 1.55109 21.25 1.75 21.25H2.25V8.5C2.25 7.095 2.25 6.393 2.587 5.889C2.73296 5.67053 2.92053 5.48296 3.139 5.337C3.58 5.042 5.676 5.005 6.757 5.001C6.753 5.292 6.753 5.596 6.753 5.911V7.25H4.25C4.05109 7.25 3.86032 7.32902 3.71967 7.46967C3.57902 7.61032 3.5 7.80109 3.5 8C3.5 8.19891 3.57902 8.38968 3.71967 8.53033C3.86032 8.67098 4.05109 8.75 4.25 8.75H6.753V10.25H4.25C4.05109 10.25 3.86032 10.329 3.71967 10.4697C3.57902 10.6103 3.5 10.8011 3.5 11C3.5 11.1989 3.57902 11.3897 3.71967 11.5303C3.86032 11.671 4.05109 11.75 4.25 11.75H6.753V13.25H4.25C4.05109 13.25 3.86032 13.329 3.71967 13.4697C3.57902 13.6103 3.5 13.8011 3.5 14C3.5 14.1989 3.57902 14.3897 3.71967 14.5303C3.86032 14.671 4.05109 14.75 4.25 14.75H6.753V21.25H16.753V14.75H19.25C19.4489 14.75 19.6397 14.671 19.7803 14.5303C19.921 14.3897 20 14.1989 20 14C20 13.8011 19.921 13.6103 19.7803 13.4697C19.6397 13.329 19.4489 13.25 19.25 13.25H16.753V11.75H19.25C19.4489 11.75 19.6397 11.671 19.7803 11.5303C19.921 11.3897 20 11.1989 20 11C20 10.8011 19.921 10.6103 19.7803 10.4697C19.6397 10.329 19.4489 10.25 19.25 10.25H16.753V8.75H19.25C19.4489 8.75 19.6397 8.67098 19.7803 8.53033C19.921 8.38968 20 8.19891 20 8C20 7.80109 19.921 7.61032 19.7803 7.46967C19.6397 7.32902 19.4489 7.25 19.25 7.25H16.753V5.91C16.753 5.596 16.753 5.292 16.749 5C17.83 5.005 19.919 5.042 20.361 5.337C20.5795 5.48296 20.767 5.67053 20.913 5.889Z" fill="#06B8EE"/>
</svg>
