<svg width="390" height="77" viewBox="0 0 390 77" fill="none" xmlns="http://www.w3.org/2000/svg">
<g clip-path="url(#clip0_228_771)">
<path d="M76.4977 38.693C76.4815 36.0712 75.4423 33.5615 73.6053 31.7074C71.7683 29.8533 69.2814 28.804 66.6831 28.7869L76.4499 18.9319C76.4654 21.5538 77.5043 24.064 79.3415 25.9183C81.1787 27.7726 83.666 28.8216 86.2645 28.838L76.4977 38.693Z" fill="url(#paint0_linear_228_771)"/>
<path d="M56.9836 38.693C56.9998 36.0708 58.0394 33.5606 59.877 31.7064C61.7146 29.8522 64.2023 28.8033 66.801 28.7869L57.0342 18.9319C57.018 21.5541 55.9784 24.0642 54.1408 25.9184C52.3032 27.7727 49.8155 28.8216 47.2168 28.838L56.9836 38.693Z" fill="#242DA8"/>
<path d="M87.1528 28.8323C88.4827 28.9634 89.8251 28.8208 91.0987 28.4132C92.3724 28.0057 93.5508 27.3415 94.5627 26.4611C95.5747 25.5806 96.399 24.5021 96.9859 23.2909C97.5727 22.0797 97.9099 20.7608 97.977 19.4143L106.729 29.6581C105.399 29.5266 104.056 29.6688 102.783 30.076C101.509 30.4832 100.33 31.147 99.3178 32.0272C98.3056 32.9074 97.481 33.9857 96.8938 35.1968C96.3066 36.4079 95.9691 37.7267 95.9016 39.0732L87.1528 28.8323Z" fill="#A8062C"/>
<path d="M57.0342 58.227C57.033 55.6093 56.0111 53.0972 54.1894 51.2336C52.3676 49.3699 49.8923 48.3043 47.2983 48.267L57.1411 38.4659C57.1423 41.0839 58.1641 43.5963 59.9857 45.4604C61.8074 47.3245 64.2827 48.3908 66.8769 48.4288L57.0342 58.227Z" fill="url(#paint1_linear_228_771)"/>
<path d="M71.5369 9.14502H62.0485C59.3072 9.14502 57.085 11.3873 57.085 14.1534V23.7275C57.085 26.4935 59.3072 28.7358 62.0485 28.7358H71.5369C74.2782 28.7358 76.5004 26.4935 76.5004 23.7275V14.1534C76.5004 11.3873 74.2782 9.14502 71.5369 9.14502Z" fill="#242DA8"/>
<path d="M90.9524 28.7841H81.464C78.7227 28.7841 76.5005 31.0264 76.5005 33.7924V43.3665C76.5005 46.1325 78.7227 48.3749 81.464 48.3749H90.9524C93.6937 48.3749 95.916 46.1325 95.916 43.3665V33.7924C95.916 31.0264 93.6937 28.7841 90.9524 28.7841Z" fill="#D40837"/>
<path d="M112.418 10.1127H102.929C100.188 10.1127 97.9658 12.355 97.9658 15.121V24.6951C97.9658 27.4612 100.188 29.7035 102.929 29.7035H112.418C115.159 29.7035 117.381 27.4612 117.381 24.6951V15.121C117.381 12.355 115.159 10.1127 112.418 10.1127Z" fill="#D40837"/>
<path d="M52.0735 28.7841H42.5851C39.8438 28.7841 37.6216 31.0264 37.6216 33.7924V43.3665C37.6216 46.1325 39.8438 48.3749 42.5851 48.3749H52.0735C54.8148 48.3749 57.0371 46.1325 57.0371 43.3665V33.7924C57.0371 31.0264 54.8148 28.7841 52.0735 28.7841Z" fill="#242DA8"/>
<path d="M71.3792 48.2643H61.8908C59.1495 48.2643 56.9272 50.5066 56.9272 53.2727V62.8467C56.9272 65.6128 59.1495 67.8551 61.8908 67.8551H71.3792C74.1205 67.8551 76.3427 65.6128 76.3427 62.8467V53.2727C76.3427 50.5066 74.1205 48.2643 71.3792 48.2643Z" fill="#D40837"/>
<path d="M112.415 33.7413H104.08C101.338 33.7413 99.1162 35.9837 99.1162 38.7497V62.8438C99.1162 65.6099 101.338 67.8522 104.08 67.8522H112.415C115.156 67.8522 117.379 65.6099 117.379 62.8438V38.7497C117.379 35.9837 115.156 33.7413 112.415 33.7413Z" fill="#242DA8"/>
</g>
<path d="M138.207 15.8261C138.608 16.5617 139.065 17.4758 139.578 18.5681C140.113 19.6382 140.659 20.8086 141.216 22.0793C141.796 23.3278 142.364 24.6096 142.922 25.9249C143.479 27.2403 144.003 28.4775 144.493 29.6368C144.984 28.4775 145.508 27.2403 146.065 25.9249C146.622 24.6096 147.18 23.3278 147.737 22.0793C148.317 20.8086 148.863 19.6382 149.376 18.5681C149.911 17.4758 150.379 16.5617 150.78 15.8261H155.529C155.751 17.3643 155.952 19.092 156.13 21.0093C156.331 22.9042 156.498 24.8883 156.632 26.9616C156.788 29.0126 156.922 31.0747 157.033 33.148C157.167 35.2213 157.279 37.1719 157.368 39H152.285C152.218 36.7484 152.129 34.2961 152.017 31.6432C151.906 28.9903 151.739 26.3151 151.516 23.6176C151.114 24.5539 150.669 25.5905 150.178 26.7275C149.688 27.8645 149.197 29.0014 148.707 30.1384C148.239 31.2754 147.782 32.3677 147.336 33.4155C146.89 34.441 146.511 35.3216 146.199 36.0573H142.554C142.242 35.3216 141.863 34.441 141.417 33.4155C140.971 32.3677 140.503 31.2754 140.012 30.1384C139.544 29.0014 139.065 27.8645 138.574 26.7275C138.084 25.5905 137.638 24.5539 137.237 23.6176C137.014 26.3151 136.847 28.9903 136.735 31.6432C136.624 34.2961 136.535 36.7484 136.468 39H131.385C131.474 37.1719 131.574 35.2213 131.686 33.148C131.82 31.0747 131.953 29.0126 132.087 26.9616C132.243 24.8883 132.41 22.9042 132.589 21.0093C132.789 19.092 133.001 17.3643 133.224 15.8261H138.207ZM160.894 30.339C160.894 28.7785 161.128 27.4186 161.597 26.2593C162.087 25.0778 162.722 24.0969 163.503 23.3166C164.283 22.5364 165.175 21.9456 166.178 21.5443C167.203 21.143 168.251 20.9424 169.321 20.9424C171.818 20.9424 173.791 21.7115 175.24 23.2497C176.689 24.7657 177.414 27.0062 177.414 29.9712C177.414 30.261 177.403 30.5843 177.38 30.941C177.358 31.2754 177.336 31.5763 177.313 31.8438H166.011C166.122 32.8693 166.601 33.683 167.449 34.285C168.296 34.8869 169.433 35.1878 170.859 35.1878C171.774 35.1878 172.665 35.1098 173.535 34.9538C174.426 34.7754 175.151 34.5636 175.708 34.3184L176.377 38.3646C176.11 38.4984 175.753 38.6322 175.307 38.7659C174.861 38.8997 174.36 39.0111 173.802 39.1003C173.267 39.2118 172.688 39.301 172.063 39.3678C171.439 39.4347 170.815 39.4682 170.191 39.4682C168.608 39.4682 167.226 39.2341 166.044 38.7659C164.885 38.2978 163.915 37.6624 163.135 36.8598C162.377 36.035 161.808 35.0652 161.429 33.9506C161.073 32.8359 160.894 31.632 160.894 30.339ZM172.598 28.4329C172.576 28.0094 172.498 27.5969 172.364 27.1957C172.253 26.7944 172.063 26.4377 171.796 26.1256C171.551 25.8135 171.227 25.5571 170.826 25.3565C170.447 25.1558 169.968 25.0555 169.388 25.0555C168.831 25.0555 168.351 25.1558 167.95 25.3565C167.549 25.5348 167.215 25.78 166.947 26.0921C166.679 26.4043 166.468 26.7721 166.312 27.1957C166.178 27.5969 166.078 28.0094 166.011 28.4329H172.598ZM185.506 30.0715C185.506 31.6098 185.851 32.847 186.542 33.7834C187.233 34.7197 188.259 35.1878 189.619 35.1878C190.065 35.1878 190.477 35.1767 190.856 35.1544C191.235 35.1098 191.547 35.0652 191.792 35.0206V25.9584C191.48 25.7577 191.068 25.5905 190.555 25.4568C190.065 25.323 189.563 25.2561 189.05 25.2561C186.687 25.2561 185.506 26.8613 185.506 30.0715ZM196.775 38.4315C196.329 38.5653 195.816 38.699 195.237 38.8328C194.657 38.9443 194.044 39.0446 193.398 39.1338C192.773 39.2229 192.127 39.2898 191.458 39.3344C190.812 39.4013 190.187 39.4347 189.585 39.4347C188.136 39.4347 186.843 39.2229 185.706 38.7994C184.569 38.3758 183.611 37.7739 182.83 36.9936C182.05 36.191 181.448 35.2324 181.025 34.1178C180.623 32.9808 180.423 31.7101 180.423 30.3056C180.423 28.8788 180.601 27.5969 180.958 26.46C181.315 25.3007 181.827 24.3198 182.496 23.5173C183.165 22.7147 183.979 22.1016 184.937 21.6781C185.918 21.2545 187.033 21.0427 188.281 21.0427C188.972 21.0427 189.585 21.1096 190.12 21.2433C190.678 21.3771 191.235 21.5666 191.792 21.8118V13.8531L196.775 13.0505V38.4315Z" fill="#2B2B2B"/>
<path d="M212.71 30.0715C212.71 26.8613 211.528 25.2561 209.165 25.2561C208.652 25.2561 208.14 25.323 207.627 25.4568C207.136 25.5905 206.735 25.7577 206.423 25.9584V35.0206C206.668 35.0652 206.98 35.1098 207.359 35.1544C207.738 35.1767 208.151 35.1878 208.597 35.1878C209.956 35.1878 210.982 34.7197 211.673 33.7834C212.364 32.847 212.71 31.6098 212.71 30.0715ZM217.793 30.2053C217.793 31.6098 217.581 32.8805 217.157 34.0174C216.756 35.1544 216.165 36.1242 215.385 36.9267C214.605 37.7293 213.646 38.3535 212.509 38.7994C211.372 39.2229 210.079 39.4347 208.63 39.4347C208.028 39.4347 207.393 39.4013 206.724 39.3344C206.077 39.2898 205.431 39.2229 204.784 39.1338C204.16 39.0446 203.558 38.9443 202.979 38.8328C202.399 38.699 201.886 38.5653 201.44 38.4315V13.8531L206.423 13.0505V21.8118C206.98 21.5666 207.56 21.3771 208.162 21.2433C208.764 21.1096 209.41 21.0427 210.101 21.0427C211.35 21.0427 212.453 21.2656 213.412 21.7115C214.371 22.1351 215.173 22.7481 215.82 23.5507C216.466 24.3533 216.957 25.323 217.291 26.46C217.625 27.5747 217.793 28.8231 217.793 30.2053ZM228.644 39.3344C227.195 39.3121 226.014 39.1561 225.1 38.8662C224.208 38.5764 223.495 38.1751 222.96 37.6624C222.447 37.1274 222.09 36.492 221.889 35.7563C221.711 34.9983 221.622 34.1512 221.622 33.2149V13.8531L226.605 13.0505V32.2117C226.605 32.6575 226.638 33.0588 226.705 33.4155C226.772 33.7722 226.894 34.0732 227.073 34.3184C227.273 34.5636 227.552 34.7643 227.909 34.9203C228.265 35.0764 228.745 35.1767 229.347 35.2213L228.644 39.3344ZM248.655 30.1718C248.655 31.554 248.454 32.8247 248.053 33.984C247.652 35.121 247.072 36.1019 246.314 36.9267C245.556 37.7293 244.642 38.3535 243.572 38.7994C242.524 39.2452 241.343 39.4682 240.028 39.4682C238.735 39.4682 237.553 39.2452 236.483 38.7994C235.435 38.3535 234.532 37.7293 233.774 36.9267C233.016 36.1019 232.426 35.121 232.002 33.984C231.578 32.8247 231.367 31.554 231.367 30.1718C231.367 28.7896 231.578 27.5301 232.002 26.3931C232.448 25.2561 233.05 24.2864 233.808 23.4838C234.588 22.6813 235.502 22.057 236.55 21.6112C237.62 21.1653 238.779 20.9424 240.028 20.9424C241.298 20.9424 242.458 21.1653 243.505 21.6112C244.575 22.057 245.489 22.6813 246.247 23.4838C247.005 24.2864 247.596 25.2561 248.02 26.3931C248.443 27.5301 248.655 28.7896 248.655 30.1718ZM243.572 30.1718C243.572 28.6336 243.26 27.4297 242.636 26.5603C242.034 25.6686 241.165 25.2227 240.028 25.2227C238.891 25.2227 238.01 25.6686 237.386 26.5603C236.762 27.4297 236.449 28.6336 236.449 30.1718C236.449 31.7101 236.762 32.9362 237.386 33.8502C238.01 34.742 238.891 35.1878 240.028 35.1878C241.165 35.1878 242.034 34.742 242.636 33.8502C243.26 32.9362 243.572 31.7101 243.572 30.1718ZM251.679 30.2053C251.679 28.9345 251.879 27.7419 252.281 26.6272C252.704 25.4902 253.306 24.5093 254.086 23.6845C254.867 22.8373 255.814 22.1685 256.929 21.6781C258.044 21.1876 259.314 20.9424 260.741 20.9424C261.677 20.9424 262.536 21.0316 263.316 21.2099C264.096 21.366 264.854 21.6 265.59 21.9121L264.553 25.8915C264.085 25.7132 263.572 25.5571 263.015 25.4233C262.458 25.2896 261.833 25.2227 261.142 25.2227C259.671 25.2227 258.567 25.6797 257.832 26.5937C257.118 27.5078 256.762 28.7116 256.762 30.2053C256.762 31.7881 257.096 33.0142 257.765 33.8837C258.456 34.7531 259.649 35.1878 261.343 35.1878C261.945 35.1878 262.591 35.1321 263.282 35.0206C263.974 34.9092 264.609 34.7308 265.189 34.4856L265.891 38.5653C265.311 38.8105 264.587 39.0223 263.717 39.2006C262.848 39.379 261.889 39.4682 260.841 39.4682C259.236 39.4682 257.854 39.2341 256.695 38.7659C255.536 38.2755 254.577 37.6178 253.819 36.793C253.083 35.9681 252.537 34.9983 252.18 33.8837C251.846 32.7467 251.679 31.5206 251.679 30.2053ZM274.217 27.7641C274.708 27.2291 275.209 26.6718 275.722 26.0921C276.257 25.5125 276.77 24.944 277.26 24.3867C277.751 23.8071 278.208 23.2609 278.631 22.7481C279.077 22.2354 279.456 21.7895 279.768 21.4105H285.687C284.506 22.7704 283.347 24.0746 282.21 25.323C281.095 26.5492 279.869 27.8199 278.531 29.1352C279.2 29.7371 279.891 30.4616 280.604 31.3088C281.318 32.1336 282.009 32.9919 282.678 33.8837C283.347 34.7754 283.96 35.6671 284.517 36.5589C285.074 37.4506 285.542 38.2643 285.921 39H280.203C279.846 38.4204 279.434 37.785 278.966 37.0939C278.52 36.3805 278.041 35.6783 277.528 34.9872C277.015 34.2738 276.469 33.5939 275.889 32.9474C275.332 32.3008 274.775 31.7547 274.217 31.3088V39H269.235V13.8531L274.217 13.0505V27.7641Z" fill="#D40837"/>
<path d="M133.508 64.8463C135.203 64.8463 136.05 64.2667 136.05 63.1074C136.05 62.7507 135.972 62.4498 135.816 62.2046C135.671 61.9482 135.47 61.7308 135.214 61.5525C134.957 61.363 134.662 61.2014 134.328 61.0676C134.004 60.9338 133.659 60.8001 133.291 60.6663C132.867 60.5214 132.466 60.3598 132.087 60.1814C131.708 59.9919 131.379 59.7746 131.101 59.5294C130.822 59.273 130.599 58.972 130.432 58.6265C130.276 58.2809 130.198 57.8629 130.198 57.3725C130.198 56.3581 130.543 55.5667 131.234 54.9982C131.925 54.4297 132.878 54.1455 134.093 54.1455C134.796 54.1455 135.431 54.2235 136 54.3796C136.579 54.5245 137.003 54.6861 137.27 54.8645L136.752 56.1854C136.518 56.0404 136.167 55.9011 135.699 55.7673C135.242 55.6224 134.707 55.55 134.093 55.55C133.781 55.55 133.492 55.5834 133.224 55.6503C132.957 55.7172 132.722 55.8175 132.522 55.9513C132.321 56.085 132.16 56.2578 132.037 56.4696C131.925 56.6702 131.87 56.9099 131.87 57.1886C131.87 57.5007 131.931 57.7626 132.054 57.9744C132.176 58.1862 132.349 58.3757 132.572 58.5429C132.795 58.6989 133.051 58.8438 133.341 58.9776C133.642 59.1114 133.971 59.2451 134.328 59.3789C134.829 59.5795 135.286 59.7802 135.699 59.9808C136.122 60.1814 136.484 60.4211 136.785 60.6998C137.097 60.9784 137.337 61.3128 137.504 61.703C137.672 62.0819 137.755 62.5445 137.755 63.0907C137.755 64.1051 137.382 64.8853 136.635 65.4315C135.899 65.9777 134.857 66.2508 133.508 66.2508C133.051 66.2508 132.628 66.2174 132.238 66.1505C131.859 66.0947 131.519 66.0279 131.218 65.9498C130.917 65.8607 130.655 65.7715 130.432 65.6823C130.22 65.582 130.053 65.4984 129.93 65.4315L130.415 64.0939C130.671 64.2388 131.062 64.4005 131.585 64.5788C132.109 64.7571 132.75 64.8463 133.508 64.8463ZM139.13 61.6695C139.13 60.9004 139.241 60.2316 139.464 59.6631C139.687 59.0835 139.983 58.6042 140.351 58.2252C140.718 57.8462 141.142 57.562 141.621 57.3725C142.101 57.183 142.591 57.0882 143.093 57.0882C144.263 57.0882 145.16 57.4561 145.785 58.1918C146.409 58.9163 146.721 60.0254 146.721 61.519C146.721 61.5859 146.721 61.6751 146.721 61.7866C146.721 61.8869 146.715 61.9816 146.704 62.0708H140.752C140.819 62.9737 141.081 63.6592 141.538 64.1274C141.995 64.5955 142.708 64.8296 143.678 64.8296C144.224 64.8296 144.681 64.785 145.049 64.6958C145.428 64.5955 145.712 64.5008 145.902 64.4116L146.119 65.7158C145.929 65.8161 145.595 65.922 145.116 66.0334C144.648 66.1449 144.113 66.2006 143.511 66.2006C142.753 66.2006 142.095 66.0892 141.538 65.8662C140.991 65.6322 140.54 65.3145 140.183 64.9132C139.827 64.5119 139.559 64.0382 139.381 63.492C139.214 62.9347 139.13 62.3272 139.13 61.6695ZM145.099 60.8168C145.11 60.1146 144.932 59.5405 144.564 59.0946C144.207 58.6376 143.711 58.4091 143.076 58.4091C142.719 58.4091 142.402 58.4816 142.123 58.6265C141.855 58.7602 141.627 58.9386 141.437 59.1615C141.248 59.3844 141.097 59.6408 140.986 59.9306C140.886 60.2204 140.819 60.5158 140.785 60.8168H145.099ZM152.733 66.2006C152.031 66.2006 151.412 66.0892 150.877 65.8662C150.353 65.6433 149.908 65.3312 149.54 64.9299C149.183 64.5286 148.916 64.0549 148.737 63.5087C148.559 62.9514 148.47 62.3383 148.47 61.6695C148.47 61.0007 148.564 60.3876 148.754 59.8303C148.955 59.273 149.233 58.7937 149.59 58.3924C149.947 57.98 150.381 57.6623 150.894 57.4394C151.418 57.2053 151.998 57.0882 152.633 57.0882C153.023 57.0882 153.413 57.1217 153.803 57.1886C154.193 57.2554 154.567 57.3613 154.924 57.5062L154.572 58.8271C154.338 58.7156 154.065 58.6265 153.753 58.5596C153.452 58.4927 153.129 58.4593 152.783 58.4593C151.914 58.4593 151.245 58.7324 150.777 59.2786C150.32 59.8247 150.092 60.6217 150.092 61.6695C150.092 62.1377 150.142 62.5668 150.242 62.957C150.353 63.3471 150.521 63.6815 150.744 63.9602C150.978 64.2388 151.273 64.4562 151.63 64.6122C151.986 64.7571 152.421 64.8296 152.934 64.8296C153.346 64.8296 153.72 64.7906 154.054 64.7126C154.389 64.6345 154.651 64.5509 154.84 64.4618L155.057 65.7659C154.968 65.8217 154.84 65.8774 154.673 65.9331C154.506 65.9777 154.316 66.0167 154.104 66.0502C153.893 66.0947 153.664 66.1282 153.419 66.1505C153.185 66.1839 152.956 66.2006 152.733 66.2006ZM163.649 65.7492C163.292 65.8384 162.818 65.9331 162.228 66.0334C161.648 66.1338 160.974 66.1839 160.205 66.1839C159.536 66.1839 158.973 66.0892 158.516 65.8997C158.059 65.699 157.691 65.4204 157.412 65.0637C157.134 64.707 156.933 64.289 156.81 63.8097C156.688 63.3192 156.626 62.7786 156.626 62.1878V57.3056H158.181V61.8534C158.181 62.9124 158.349 63.6703 158.683 64.1274C159.017 64.5844 159.58 64.8129 160.372 64.8129C160.539 64.8129 160.712 64.8073 160.89 64.7962C161.068 64.785 161.236 64.7739 161.392 64.7627C161.548 64.7404 161.687 64.7237 161.81 64.7126C161.943 64.6903 162.038 64.668 162.094 64.6457V57.3056H163.649V65.7492ZM169.538 57.1217C169.672 57.1217 169.822 57.1328 169.989 57.1551C170.168 57.1663 170.34 57.1886 170.508 57.222C170.675 57.2443 170.825 57.2722 170.959 57.3056C171.104 57.3279 171.21 57.3502 171.277 57.3725L171.009 58.7268C170.887 58.6822 170.68 58.632 170.391 58.5763C170.112 58.5094 169.75 58.476 169.304 58.476C169.014 58.476 168.724 58.5094 168.434 58.5763C168.156 58.632 167.972 58.6711 167.883 58.6934V66H166.328V57.6734C166.696 57.5397 167.153 57.4171 167.699 57.3056C168.245 57.183 168.858 57.1217 169.538 57.1217ZM172.292 61.6695C172.292 60.9004 172.404 60.2316 172.627 59.6631C172.85 59.0835 173.145 58.6042 173.513 58.2252C173.881 57.8462 174.304 57.562 174.784 57.3725C175.263 57.183 175.753 57.0882 176.255 57.0882C177.425 57.0882 178.323 57.4561 178.947 58.1918C179.571 58.9163 179.883 60.0254 179.883 61.519C179.883 61.5859 179.883 61.6751 179.883 61.7866C179.883 61.8869 179.878 61.9816 179.867 62.0708H173.914C173.981 62.9737 174.243 63.6592 174.7 64.1274C175.157 64.5955 175.871 64.8296 176.84 64.8296C177.386 64.8296 177.843 64.785 178.211 64.6958C178.59 64.5955 178.875 64.5008 179.064 64.4116L179.281 65.7158C179.092 65.8161 178.758 65.922 178.278 66.0334C177.81 66.1449 177.275 66.2006 176.673 66.2006C175.915 66.2006 175.257 66.0892 174.7 65.8662C174.154 65.6322 173.702 65.3145 173.346 64.9132C172.989 64.5119 172.722 64.0382 172.543 63.492C172.376 62.9347 172.292 62.3272 172.292 61.6695ZM178.261 60.8168C178.273 60.1146 178.094 59.5405 177.726 59.0946C177.37 58.6376 176.874 58.4091 176.238 58.4091C175.882 58.4091 175.564 58.4816 175.285 58.6265C175.018 58.7602 174.789 58.9386 174.6 59.1615C174.41 59.3844 174.26 59.6408 174.148 59.9306C174.048 60.2204 173.981 60.5158 173.948 60.8168H178.261ZM193.377 54.413H194.999V66H193.377V60.6496H187.709V66H186.087V54.413H187.709V59.2451H193.377V54.413ZM197.291 61.6695C197.291 60.9004 197.402 60.2316 197.625 59.6631C197.848 59.0835 198.144 58.6042 198.511 58.2252C198.879 57.8462 199.303 57.562 199.782 57.3725C200.261 57.183 200.752 57.0882 201.253 57.0882C202.424 57.0882 203.321 57.4561 203.945 58.1918C204.57 58.9163 204.882 60.0254 204.882 61.519C204.882 61.5859 204.882 61.6751 204.882 61.7866C204.882 61.8869 204.876 61.9816 204.865 62.0708H198.913C198.98 62.9737 199.241 63.6592 199.698 64.1274C200.156 64.5955 200.869 64.8296 201.839 64.8296C202.385 64.8296 202.842 64.785 203.21 64.6958C203.589 64.5955 203.873 64.5008 204.062 64.4116L204.28 65.7158C204.09 65.8161 203.756 65.922 203.277 66.0334C202.808 66.1449 202.273 66.2006 201.671 66.2006C200.913 66.2006 200.256 66.0892 199.698 65.8662C199.152 65.6322 198.701 65.3145 198.344 64.9132C197.987 64.5119 197.72 64.0382 197.542 63.492C197.374 62.9347 197.291 62.3272 197.291 61.6695ZM203.26 60.8168C203.271 60.1146 203.093 59.5405 202.725 59.0946C202.368 58.6376 201.872 58.4091 201.237 58.4091C200.88 58.4091 200.562 58.4816 200.284 58.6265C200.016 58.7602 199.788 58.9386 199.598 59.1615C199.409 59.3844 199.258 59.6408 199.147 59.9306C199.046 60.2204 198.98 60.5158 198.946 60.8168H203.26ZM210.058 64.8798C210.426 64.8798 210.749 64.8742 211.028 64.863C211.318 64.8407 211.557 64.8073 211.747 64.7627V62.1711C211.635 62.1154 211.451 62.0708 211.195 62.0374C210.95 61.9928 210.649 61.9705 210.292 61.9705C210.058 61.9705 209.807 61.9872 209.54 62.0206C209.283 62.0541 209.044 62.1265 208.821 62.238C208.609 62.3383 208.431 62.4832 208.286 62.6727C208.141 62.8511 208.068 63.0907 208.068 63.3917C208.068 63.949 208.247 64.3391 208.603 64.5621C208.96 64.7739 209.445 64.8798 210.058 64.8798ZM209.924 57.0882C210.549 57.0882 211.072 57.1718 211.496 57.339C211.931 57.4951 212.276 57.7236 212.533 58.0246C212.8 58.3144 212.99 58.6655 213.101 59.0779C213.213 59.4792 213.268 59.9251 213.268 60.4155V65.8495C213.135 65.8718 212.945 65.9053 212.7 65.9498C212.466 65.9833 212.198 66.0167 211.897 66.0502C211.596 66.0836 211.268 66.1115 210.911 66.1338C210.565 66.1672 210.22 66.1839 209.874 66.1839C209.384 66.1839 208.932 66.1338 208.52 66.0334C208.107 65.9331 207.751 65.7771 207.45 65.5653C207.149 65.3423 206.915 65.0525 206.748 64.6958C206.58 64.3391 206.497 63.91 206.497 63.4084C206.497 62.9291 206.592 62.5167 206.781 62.1711C206.982 61.8256 207.249 61.5469 207.584 61.3351C207.918 61.1233 208.308 60.9673 208.754 60.867C209.2 60.7666 209.668 60.7165 210.158 60.7165C210.314 60.7165 210.476 60.7276 210.643 60.7499C210.811 60.7611 210.967 60.7834 211.111 60.8168C211.268 60.8391 211.401 60.8614 211.513 60.8837C211.624 60.906 211.702 60.9227 211.747 60.9338V60.4991C211.747 60.2427 211.719 59.9919 211.663 59.7467C211.608 59.4903 211.507 59.2674 211.362 59.0779C211.217 58.8773 211.017 58.7212 210.76 58.6098C210.515 58.4871 210.192 58.4258 209.791 58.4258C209.278 58.4258 208.826 58.4648 208.436 58.5429C208.057 58.6098 207.773 58.6822 207.584 58.7602L207.4 57.4728C207.6 57.3836 207.935 57.3 208.403 57.222C208.871 57.1328 209.378 57.0882 209.924 57.0882ZM218.459 66.1672C217.501 66.1449 216.821 65.9387 216.419 65.5486C216.018 65.1584 215.818 64.5509 215.818 63.7261V53.2928L217.372 53.0253V63.4753C217.372 63.7317 217.395 63.9434 217.439 64.1106C217.484 64.2778 217.556 64.4116 217.657 64.5119C217.757 64.6122 217.891 64.6903 218.058 64.746C218.225 64.7906 218.431 64.8296 218.677 64.863L218.459 66.1672ZM221.877 57.3056H225.171V58.6098H221.877V62.6226C221.877 63.0573 221.911 63.4195 221.978 63.7094C222.045 63.988 222.145 64.211 222.279 64.3782C222.413 64.5342 222.58 64.6457 222.78 64.7126C222.981 64.7794 223.215 64.8129 223.483 64.8129C223.951 64.8129 224.324 64.7627 224.603 64.6624C224.893 64.5509 225.093 64.4729 225.205 64.4283L225.506 65.7158C225.35 65.7938 225.077 65.8885 224.686 66C224.296 66.1226 223.85 66.1839 223.349 66.1839C222.758 66.1839 222.268 66.1115 221.877 65.9666C221.498 65.8105 221.192 65.582 220.958 65.281C220.724 64.9801 220.557 64.6122 220.456 64.1775C220.367 63.7317 220.323 63.2189 220.323 62.6393V54.8812L221.877 54.6137V57.3056ZM227.15 66V53.2928L228.705 53.0253V57.4728C228.995 57.3613 229.301 57.2777 229.625 57.222C229.959 57.1551 230.288 57.1217 230.611 57.1217C231.302 57.1217 231.876 57.222 232.333 57.4226C232.79 57.6121 233.153 57.8852 233.42 58.2419C233.699 58.5875 233.894 59.0055 234.005 59.4959C234.117 59.9864 234.172 60.527 234.172 61.1178V66H232.617V61.4522C232.617 60.9171 232.578 60.4601 232.5 60.0811C232.434 59.7021 232.317 59.3956 232.149 59.1615C231.982 58.9274 231.759 58.7602 231.481 58.6599C231.202 58.5484 230.856 58.4927 230.444 58.4927C230.277 58.4927 230.104 58.5039 229.926 58.5262C229.747 58.5484 229.574 58.5763 229.407 58.6098C229.251 58.632 229.106 58.6599 228.973 58.6934C228.85 58.7268 228.761 58.7547 228.705 58.777V66H227.15ZM238.341 64.0939C238.352 64.1831 238.357 64.2723 238.357 64.3614C238.357 64.4395 238.357 64.5231 238.357 64.6122C238.357 65.3145 238.251 66.0056 238.04 66.6855C237.839 67.3766 237.56 68.0343 237.204 68.6585L236 68.2739C236.278 67.7054 236.462 67.1258 236.552 66.535C236.641 65.9554 236.685 65.4092 236.685 64.8965C236.685 64.7516 236.68 64.6122 236.669 64.4785C236.669 64.3447 236.663 64.2165 236.652 64.0939H238.341ZM247.479 64.8463C249.173 64.8463 250.02 64.2667 250.02 63.1074C250.02 62.7507 249.942 62.4498 249.786 62.2046C249.641 61.9482 249.441 61.7308 249.184 61.5525C248.928 61.363 248.632 61.2014 248.298 61.0676C247.975 60.9338 247.629 60.8001 247.261 60.6663C246.838 60.5214 246.436 60.3598 246.057 60.1814C245.679 59.9919 245.35 59.7746 245.071 59.5294C244.792 59.273 244.569 58.972 244.402 58.6265C244.246 58.2809 244.168 57.8629 244.168 57.3725C244.168 56.3581 244.514 55.5667 245.205 54.9982C245.896 54.4297 246.849 54.1455 248.064 54.1455C248.766 54.1455 249.401 54.2235 249.97 54.3796C250.55 54.5245 250.973 54.6861 251.241 54.8645L250.722 56.1854C250.488 56.0404 250.137 55.9011 249.669 55.7673C249.212 55.6224 248.677 55.55 248.064 55.55C247.752 55.55 247.462 55.5834 247.194 55.6503C246.927 55.7172 246.693 55.8175 246.492 55.9513C246.292 56.085 246.13 56.2578 246.007 56.4696C245.896 56.6702 245.84 56.9099 245.84 57.1886C245.84 57.5007 245.901 57.7626 246.024 57.9744C246.147 58.1862 246.319 58.3757 246.542 58.5429C246.765 58.6989 247.022 58.8438 247.311 58.9776C247.612 59.1114 247.941 59.2451 248.298 59.3789C248.8 59.5795 249.257 59.7802 249.669 59.9808C250.093 60.1814 250.455 60.4211 250.756 60.6998C251.068 60.9784 251.308 61.3128 251.475 61.703C251.642 62.0819 251.726 62.5445 251.726 63.0907C251.726 64.1051 251.352 64.8853 250.605 65.4315C249.87 65.9777 248.827 66.2508 247.479 66.2508C247.022 66.2508 246.598 66.2174 246.208 66.1505C245.829 66.0947 245.489 66.0279 245.188 65.9498C244.887 65.8607 244.625 65.7715 244.402 65.6823C244.19 65.582 244.023 65.4984 243.901 65.4315L244.385 64.0939C244.642 64.2388 245.032 64.4005 245.556 64.5788C246.08 64.7571 246.721 64.8463 247.479 64.8463ZM253.1 61.6695C253.1 60.9004 253.212 60.2316 253.435 59.6631C253.658 59.0835 253.953 58.6042 254.321 58.2252C254.689 57.8462 255.112 57.562 255.592 57.3725C256.071 57.183 256.561 57.0882 257.063 57.0882C258.233 57.0882 259.131 57.4561 259.755 58.1918C260.379 58.9163 260.691 60.0254 260.691 61.519C260.691 61.5859 260.691 61.6751 260.691 61.7866C260.691 61.8869 260.686 61.9816 260.675 62.0708H254.722C254.789 62.9737 255.051 63.6592 255.508 64.1274C255.965 64.5955 256.678 64.8296 257.648 64.8296C258.194 64.8296 258.651 64.785 259.019 64.6958C259.398 64.5955 259.683 64.5008 259.872 64.4116L260.089 65.7158C259.9 65.8161 259.565 65.922 259.086 66.0334C258.618 66.1449 258.083 66.2006 257.481 66.2006C256.723 66.2006 256.065 66.0892 255.508 65.8662C254.962 65.6322 254.51 65.3145 254.154 64.9132C253.797 64.5119 253.53 64.0382 253.351 63.492C253.184 62.9347 253.1 62.3272 253.1 61.6695ZM259.069 60.8168C259.081 60.1146 258.902 59.5405 258.534 59.0946C258.178 58.6376 257.682 58.4091 257.046 58.4091C256.69 58.4091 256.372 58.4816 256.093 58.6265C255.826 58.7602 255.597 58.9386 255.408 59.1615C255.218 59.3844 255.068 59.6408 254.956 59.9306C254.856 60.2204 254.789 60.5158 254.756 60.8168H259.069ZM265.868 64.8798C266.236 64.8798 266.559 64.8742 266.837 64.863C267.127 64.8407 267.367 64.8073 267.556 64.7627V62.1711C267.445 62.1154 267.261 62.0708 267.005 62.0374C266.759 61.9928 266.458 61.9705 266.102 61.9705C265.868 61.9705 265.617 61.9872 265.349 62.0206C265.093 62.0541 264.853 62.1265 264.63 62.238C264.419 62.3383 264.24 62.4832 264.095 62.6727C263.95 62.8511 263.878 63.0907 263.878 63.3917C263.878 63.949 264.056 64.3391 264.413 64.5621C264.77 64.7739 265.255 64.8798 265.868 64.8798ZM265.734 57.0882C266.358 57.0882 266.882 57.1718 267.306 57.339C267.74 57.4951 268.086 57.7236 268.342 58.0246C268.61 58.3144 268.799 58.6655 268.911 59.0779C269.022 59.4792 269.078 59.9251 269.078 60.4155V65.8495C268.944 65.8718 268.755 65.9053 268.509 65.9498C268.275 65.9833 268.008 66.0167 267.707 66.0502C267.406 66.0836 267.077 66.1115 266.72 66.1338C266.375 66.1672 266.029 66.1839 265.684 66.1839C265.193 66.1839 264.742 66.1338 264.329 66.0334C263.917 65.9331 263.56 65.7771 263.259 65.5653C262.958 65.3423 262.724 65.0525 262.557 64.6958C262.39 64.3391 262.306 63.91 262.306 63.4084C262.306 62.9291 262.401 62.5167 262.591 62.1711C262.791 61.8256 263.059 61.5469 263.393 61.3351C263.728 61.1233 264.118 60.9673 264.564 60.867C265.009 60.7666 265.478 60.7165 265.968 60.7165C266.124 60.7165 266.286 60.7276 266.453 60.7499C266.62 60.7611 266.776 60.7834 266.921 60.8168C267.077 60.8391 267.211 60.8614 267.322 60.8837C267.434 60.906 267.512 60.9227 267.556 60.9338V60.4991C267.556 60.2427 267.529 59.9919 267.473 59.7467C267.417 59.4903 267.317 59.2674 267.172 59.0779C267.027 58.8773 266.826 58.7212 266.57 58.6098C266.325 58.4871 266.001 58.4258 265.6 58.4258C265.087 58.4258 264.636 58.4648 264.246 58.5429C263.867 58.6098 263.583 58.6822 263.393 58.7602L263.209 57.4728C263.41 57.3836 263.744 57.3 264.212 57.222C264.681 57.1328 265.188 57.0882 265.734 57.0882ZM271.661 57.5564C272.017 57.4672 272.485 57.3725 273.065 57.2722C273.656 57.1718 274.336 57.1217 275.105 57.1217C275.662 57.1217 276.13 57.1997 276.509 57.3558C276.888 57.5007 277.206 57.718 277.462 58.0078C277.54 57.9521 277.663 57.8741 277.83 57.7738C277.997 57.6734 278.204 57.5787 278.449 57.4895C278.694 57.3892 278.967 57.3056 279.268 57.2387C279.569 57.1607 279.892 57.1217 280.238 57.1217C280.907 57.1217 281.453 57.222 281.876 57.4226C282.3 57.6121 282.629 57.8852 282.863 58.2419C283.108 58.5986 283.27 59.0222 283.348 59.5126C283.437 60.0031 283.482 60.5381 283.482 61.1178V66H281.927V61.4522C281.927 60.9394 281.899 60.4991 281.843 60.1313C281.798 59.7634 281.704 59.4569 281.559 59.2117C281.425 58.9664 281.236 58.7881 280.99 58.6766C280.756 58.554 280.45 58.4927 280.071 58.4927C279.547 58.4927 279.112 58.5652 278.767 58.7101C278.432 58.8438 278.204 58.9664 278.081 59.0779C278.17 59.3677 278.237 59.6854 278.282 60.031C278.326 60.3765 278.349 60.7388 278.349 61.1178V66H276.794V61.4522C276.794 60.9394 276.766 60.4991 276.71 60.1313C276.654 59.7634 276.554 59.4569 276.409 59.2117C276.275 58.9664 276.086 58.7881 275.841 58.6766C275.606 58.554 275.306 58.4927 274.938 58.4927C274.782 58.4927 274.614 58.4983 274.436 58.5094C274.258 58.5206 274.085 58.5373 273.918 58.5596C273.762 58.5707 273.617 58.5875 273.483 58.6098C273.349 58.632 273.26 58.6488 273.215 58.6599V66H271.661V57.5564ZM288.67 66.1672C287.712 66.1449 287.032 65.9387 286.63 65.5486C286.229 65.1584 286.029 64.5509 286.029 63.7261V53.2928L287.583 53.0253V63.4753C287.583 63.7317 287.606 63.9434 287.65 64.1106C287.695 64.2778 287.767 64.4116 287.868 64.5119C287.968 64.6122 288.102 64.6903 288.269 64.746C288.436 64.7906 288.642 64.8296 288.888 64.863L288.67 66.1672ZM290.149 61.6695C290.149 60.9004 290.26 60.2316 290.483 59.6631C290.706 59.0835 291.002 58.6042 291.37 58.2252C291.737 57.8462 292.161 57.562 292.64 57.3725C293.12 57.183 293.61 57.0882 294.112 57.0882C295.282 57.0882 296.179 57.4561 296.804 58.1918C297.428 58.9163 297.74 60.0254 297.74 61.519C297.74 61.5859 297.74 61.6751 297.74 61.7866C297.74 61.8869 297.734 61.9816 297.723 62.0708H291.771C291.838 62.9737 292.1 63.6592 292.557 64.1274C293.014 64.5955 293.727 64.8296 294.697 64.8296C295.243 64.8296 295.7 64.785 296.068 64.6958C296.447 64.5955 296.731 64.5008 296.921 64.4116L297.138 65.7158C296.948 65.8161 296.614 65.922 296.135 66.0334C295.667 66.1449 295.132 66.2006 294.53 66.2006C293.772 66.2006 293.114 66.0892 292.557 65.8662C292.01 65.6322 291.559 65.3145 291.202 64.9132C290.846 64.5119 290.578 64.0382 290.4 63.492C290.233 62.9347 290.149 62.3272 290.149 61.6695ZM296.118 60.8168C296.129 60.1146 295.951 59.5405 295.583 59.0946C295.226 58.6376 294.73 58.4091 294.095 58.4091C293.738 58.4091 293.421 58.4816 293.142 58.6265C292.874 58.7602 292.646 58.9386 292.456 59.1615C292.267 59.3844 292.116 59.6408 292.005 59.9306C291.905 60.2204 291.838 60.5158 291.804 60.8168H296.118ZM301.997 64.8798C302.632 64.8798 303.1 64.7962 303.401 64.629C303.713 64.4618 303.869 64.1942 303.869 63.8264C303.869 63.4474 303.719 63.1465 303.418 62.9235C303.117 62.7006 302.621 62.4498 301.93 62.1711C301.595 62.0374 301.272 61.9036 300.96 61.7698C300.659 61.6249 300.397 61.4577 300.174 61.2682C299.951 61.0787 299.773 60.8502 299.639 60.5827C299.505 60.3152 299.438 59.9864 299.438 59.5962C299.438 58.8271 299.723 58.2196 300.291 57.7738C300.86 57.3167 301.634 57.0882 302.615 57.0882C302.861 57.0882 303.106 57.105 303.351 57.1384C303.596 57.1607 303.825 57.1941 304.036 57.2387C304.248 57.2722 304.432 57.3112 304.588 57.3558C304.755 57.4003 304.884 57.4394 304.973 57.4728L304.689 58.8104C304.521 58.7212 304.259 58.632 303.903 58.5429C303.546 58.4426 303.117 58.3924 302.615 58.3924C302.181 58.3924 301.802 58.4816 301.478 58.6599C301.155 58.8271 300.993 59.0946 300.993 59.4625C300.993 59.652 301.027 59.8192 301.094 59.9641C301.172 60.109 301.283 60.2427 301.428 60.3654C301.584 60.4768 301.774 60.5827 301.997 60.683C302.22 60.7834 302.487 60.8892 302.799 61.0007C303.212 61.1568 303.579 61.3128 303.903 61.4689C304.226 61.6138 304.499 61.7866 304.722 61.9872C304.956 62.1878 305.134 62.4331 305.257 62.7229C305.38 63.0015 305.441 63.3471 305.441 63.7595C305.441 64.5621 305.14 65.1696 304.538 65.582C303.947 65.9944 303.1 66.2006 301.997 66.2006C301.228 66.2006 300.626 66.1338 300.191 66C299.756 65.8774 299.461 65.7826 299.305 65.7158L299.589 64.3782C299.767 64.445 300.052 64.5454 300.442 64.6791C300.832 64.8129 301.35 64.8798 301.997 64.8798ZM309.459 64.8798C310.094 64.8798 310.562 64.7962 310.863 64.629C311.175 64.4618 311.331 64.1942 311.331 63.8264C311.331 63.4474 311.181 63.1465 310.88 62.9235C310.579 62.7006 310.083 62.4498 309.392 62.1711C309.057 62.0374 308.734 61.9036 308.422 61.7698C308.121 61.6249 307.859 61.4577 307.636 61.2682C307.413 61.0787 307.235 60.8502 307.101 60.5827C306.967 60.3152 306.9 59.9864 306.9 59.5962C306.9 58.8271 307.185 58.2196 307.753 57.7738C308.322 57.3167 309.096 57.0882 310.077 57.0882C310.322 57.0882 310.568 57.105 310.813 57.1384C311.058 57.1607 311.287 57.1941 311.498 57.2387C311.71 57.2722 311.894 57.3112 312.05 57.3558C312.217 57.4003 312.346 57.4394 312.435 57.4728L312.151 58.8104C311.983 58.7212 311.721 58.632 311.365 58.5429C311.008 58.4426 310.579 58.3924 310.077 58.3924C309.643 58.3924 309.264 58.4816 308.94 58.6599C308.617 58.8271 308.455 59.0946 308.455 59.4625C308.455 59.652 308.489 59.8192 308.556 59.9641C308.634 60.109 308.745 60.2427 308.89 60.3654C309.046 60.4768 309.236 60.5827 309.459 60.683C309.682 60.7834 309.949 60.8892 310.261 61.0007C310.674 61.1568 311.041 61.3128 311.365 61.4689C311.688 61.6138 311.961 61.7866 312.184 61.9872C312.418 62.1878 312.596 62.4331 312.719 62.7229C312.842 63.0015 312.903 63.3471 312.903 63.7595C312.903 64.5621 312.602 65.1696 312 65.582C311.409 65.9944 310.562 66.2006 309.459 66.2006C308.689 66.2006 308.088 66.1338 307.653 66C307.218 65.8774 306.923 65.7826 306.767 65.7158L307.051 64.3782C307.229 64.445 307.514 64.5454 307.904 64.6791C308.294 64.8129 308.812 64.8798 309.459 64.8798ZM323.85 66.2508C323.036 66.2508 322.295 66.117 321.626 65.8495C320.958 65.582 320.383 65.1919 319.904 64.6791C319.425 64.1664 319.051 63.5366 318.784 62.7898C318.528 62.0318 318.399 61.1679 318.399 60.1982C318.399 59.2284 318.544 58.3701 318.834 57.6233C319.135 56.8653 319.536 56.2299 320.038 55.7172C320.54 55.2044 321.125 54.8143 321.794 54.5468C322.462 54.2793 323.176 54.1455 323.934 54.1455C324.413 54.1455 324.842 54.1789 325.221 54.2458C325.611 54.3127 325.946 54.3907 326.224 54.4799C326.514 54.5691 326.748 54.6583 326.927 54.7474C327.105 54.8366 327.228 54.9035 327.294 54.9481L326.826 56.2857C326.726 56.2188 326.581 56.1463 326.392 56.0683C326.202 55.9903 325.985 55.9123 325.739 55.8342C325.505 55.7562 325.243 55.6949 324.954 55.6503C324.675 55.5946 324.391 55.5667 324.101 55.5667C323.488 55.5667 322.936 55.6726 322.446 55.8844C321.955 56.0962 321.537 56.4027 321.192 56.804C320.846 57.2053 320.579 57.6957 320.389 58.2754C320.211 58.8438 320.122 59.4848 320.122 60.1982C320.122 60.8892 320.2 61.519 320.356 62.0875C320.523 62.656 320.768 63.1465 321.091 63.5589C321.415 63.9602 321.816 64.2723 322.295 64.4952C322.786 64.7181 323.354 64.8296 324.001 64.8296C324.747 64.8296 325.366 64.7516 325.857 64.5955C326.347 64.4395 326.715 64.3001 326.96 64.1775L327.378 65.5151C327.3 65.5709 327.161 65.6433 326.96 65.7325C326.759 65.8105 326.509 65.8885 326.208 65.9666C325.907 66.0446 325.556 66.1115 325.154 66.1672C324.753 66.2229 324.318 66.2508 323.85 66.2508ZM332.078 64.8798C332.446 64.8798 332.769 64.8742 333.048 64.863C333.338 64.8407 333.578 64.8073 333.767 64.7627V62.1711C333.656 62.1154 333.472 62.0708 333.215 62.0374C332.97 61.9928 332.669 61.9705 332.312 61.9705C332.078 61.9705 331.828 61.9872 331.56 62.0206C331.304 62.0541 331.064 62.1265 330.841 62.238C330.629 62.3383 330.451 62.4832 330.306 62.6727C330.161 62.8511 330.089 63.0907 330.089 63.3917C330.089 63.949 330.267 64.3391 330.624 64.5621C330.98 64.7739 331.465 64.8798 332.078 64.8798ZM331.945 57.0882C332.569 57.0882 333.093 57.1718 333.516 57.339C333.951 57.4951 334.297 57.7236 334.553 58.0246C334.82 58.3144 335.01 58.6655 335.121 59.0779C335.233 59.4792 335.289 59.9251 335.289 60.4155V65.8495C335.155 65.8718 334.965 65.9053 334.72 65.9498C334.486 65.9833 334.218 66.0167 333.918 66.0502C333.617 66.0836 333.288 66.1115 332.931 66.1338C332.585 66.1672 332.24 66.1839 331.894 66.1839C331.404 66.1839 330.952 66.1338 330.54 66.0334C330.128 65.9331 329.771 65.7771 329.47 65.5653C329.169 65.3423 328.935 65.0525 328.768 64.6958C328.601 64.3391 328.517 63.91 328.517 63.4084C328.517 62.9291 328.612 62.5167 328.801 62.1711C329.002 61.8256 329.269 61.5469 329.604 61.3351C329.938 61.1233 330.328 60.9673 330.774 60.867C331.22 60.7666 331.688 60.7165 332.179 60.7165C332.335 60.7165 332.496 60.7276 332.664 60.7499C332.831 60.7611 332.987 60.7834 333.132 60.8168C333.288 60.8391 333.421 60.8614 333.533 60.8837C333.644 60.906 333.722 60.9227 333.767 60.9338V60.4991C333.767 60.2427 333.739 59.9919 333.683 59.7467C333.628 59.4903 333.527 59.2674 333.382 59.0779C333.238 58.8773 333.037 58.7212 332.781 58.6098C332.535 58.4871 332.212 58.4258 331.811 58.4258C331.298 58.4258 330.847 58.4648 330.456 58.5429C330.077 58.6098 329.793 58.6822 329.604 58.7602L329.42 57.4728C329.62 57.3836 329.955 57.3 330.423 57.222C330.891 57.1328 331.398 57.0882 331.945 57.0882ZM341.081 57.1217C341.215 57.1217 341.366 57.1328 341.533 57.1551C341.711 57.1663 341.884 57.1886 342.051 57.222C342.218 57.2443 342.369 57.2722 342.503 57.3056C342.648 57.3279 342.753 57.3502 342.82 57.3725L342.553 58.7268C342.43 58.6822 342.224 58.632 341.934 58.5763C341.655 58.5094 341.293 58.476 340.847 58.476C340.558 58.476 340.268 58.5094 339.978 58.5763C339.699 58.632 339.515 58.6711 339.426 58.6934V66H337.871V57.6734C338.239 57.5397 338.696 57.4171 339.242 57.3056C339.788 57.183 340.401 57.1217 341.081 57.1217ZM343.836 61.6695C343.836 60.9004 343.947 60.2316 344.17 59.6631C344.393 59.0835 344.689 58.6042 345.056 58.2252C345.424 57.8462 345.848 57.562 346.327 57.3725C346.806 57.183 347.297 57.0882 347.799 57.0882C348.969 57.0882 349.866 57.4561 350.49 58.1918C351.115 58.9163 351.427 60.0254 351.427 61.519C351.427 61.5859 351.427 61.6751 351.427 61.7866C351.427 61.8869 351.421 61.9816 351.41 62.0708H345.458C345.525 62.9737 345.787 63.6592 346.244 64.1274C346.701 64.5955 347.414 64.8296 348.384 64.8296C348.93 64.8296 349.387 64.785 349.755 64.6958C350.134 64.5955 350.418 64.5008 350.607 64.4116L350.825 65.7158C350.635 65.8161 350.301 65.922 349.822 66.0334C349.353 66.1449 348.818 66.2006 348.217 66.2006C347.459 66.2006 346.801 66.0892 346.244 65.8662C345.697 65.6322 345.246 65.3145 344.889 64.9132C344.533 64.5119 344.265 64.0382 344.087 63.492C343.919 62.9347 343.836 62.3272 343.836 61.6695ZM349.805 60.8168C349.816 60.1146 349.638 59.5405 349.27 59.0946C348.913 58.6376 348.417 58.4091 347.782 58.4091C347.425 58.4091 347.107 58.4816 346.829 58.6265C346.561 58.7602 346.333 58.9386 346.143 59.1615C345.954 59.3844 345.803 59.6408 345.692 59.9306C345.591 60.2204 345.525 60.5158 345.491 60.8168H349.805Z" fill="#2B2B2B"/>
<defs>
<linearGradient id="paint0_linear_228_771" x1="66.6297" y1="15.5041" x2="84.8703" y2="39.7247" gradientUnits="userSpaceOnUse">
<stop stop-color="#242DA9"/>
<stop offset="1" stop-color="#D30837"/>
</linearGradient>
<linearGradient id="paint1_linear_228_771" x1="47.0368" y1="38.6334" x2="67.8729" y2="58.4088" gradientUnits="userSpaceOnUse">
<stop stop-color="#242DA9"/>
<stop offset="1" stop-color="#D30837"/>
</linearGradient>
<clipPath id="clip0_228_771">
<rect width="79.757" height="58.71" fill="white" transform="translate(37.6216 9.14502)"/>
</clipPath>
</defs>
</svg>
