<svg width="206" height="173" viewBox="0 0 206 173" fill="none" xmlns="http://www.w3.org/2000/svg">
<g clip-path="url(#clip0_221_112)">
<path d="M101.689 38.6517C101.667 35.2223 100.308 31.9393 97.9051 29.5139C95.5021 27.0885 92.2489 25.716 88.8501 25.6936L101.626 12.8022C101.646 16.232 103.005 19.5155 105.409 21.9411C107.812 24.3667 111.065 25.739 114.465 25.7604L101.689 38.6517Z" fill="url(#paint0_linear_221_112)"/>
<path d="M76.1624 38.6517C76.1837 35.2216 77.5435 31.9381 79.9473 29.5126C82.3511 27.0871 85.6052 25.715 89.0046 25.6936L76.2286 12.8022C76.2074 16.2324 74.8476 19.5159 72.4438 21.9414C70.04 24.3669 66.7859 25.739 63.3865 25.7604L76.1624 38.6517Z" fill="#1B227F"/>
<path d="M115.627 25.7531C117.367 25.9245 119.123 25.738 120.789 25.2049C122.455 24.6717 123.996 23.803 125.32 22.6512C126.644 21.4995 127.722 20.0887 128.49 18.5043C129.257 16.9199 129.699 15.1948 129.786 13.4333L141.234 26.8332C139.495 26.6612 137.739 26.8472 136.072 27.3799C134.406 27.9126 132.864 28.7809 131.54 29.9323C130.216 31.0837 129.137 32.4942 128.369 34.0784C127.601 35.6627 127.16 37.3878 127.071 39.1492L115.627 25.7531Z" fill="#A8062C"/>
<path d="M76.2287 64.2045C76.2271 60.7803 74.8903 57.4942 72.5073 55.0563C70.1243 52.6184 66.8864 51.2245 63.4932 51.1758L76.3684 38.355C76.37 41.7795 77.7066 45.066 80.0895 47.5044C82.4725 49.9429 85.7104 51.3376 89.1039 51.3874L76.2287 64.2045Z" fill="url(#paint1_linear_221_112)"/>
<path d="M95.1998 0H82.788C79.2021 0 76.2952 2.93319 76.2952 6.55145V19.0753C76.2952 22.6936 79.2021 25.6268 82.788 25.6268H95.1998C98.7856 25.6268 101.693 22.6936 101.693 19.0753V6.55145C101.693 2.93319 98.7856 0 95.1998 0Z" fill="#242DA8"/>
<path d="M120.597 25.6899H108.185C104.599 25.6899 101.692 28.6231 101.692 32.2414V44.7653C101.692 48.3835 104.599 51.3167 108.185 51.3167H120.597C124.183 51.3167 127.09 48.3835 127.09 44.7653V32.2414C127.09 28.6231 124.183 25.6899 120.597 25.6899Z" fill="#D30837"/>
<path d="M148.676 1.26562H136.264C132.678 1.26562 129.771 4.19881 129.771 7.81708V20.3409C129.771 23.9592 132.678 26.8924 136.264 26.8924H148.676C152.262 26.8924 155.169 23.9592 155.169 20.3409V7.81708C155.169 4.19881 152.262 1.26562 148.676 1.26562Z" fill="#D30837"/>
<path d="M69.7395 25.6899H57.3278C53.7419 25.6899 50.835 28.6231 50.835 32.2414V44.7653C50.835 48.3835 53.7419 51.3167 57.3278 51.3167H69.7395C73.3254 51.3167 76.2324 48.3835 76.2324 44.7653V32.2414C76.2324 28.6231 73.3254 25.6899 69.7395 25.6899Z" fill="#242DA8"/>
<path d="M94.9937 51.1719H82.5819C78.996 51.1719 76.0891 54.1051 76.0891 57.7233V70.2472C76.0891 73.8655 78.996 76.7986 82.5819 76.7986H94.9937C98.5796 76.7986 101.487 73.8655 101.487 70.2472V57.7233C101.487 54.1051 98.5796 51.1719 94.9937 51.1719Z" fill="#D30837"/>
<path d="M148.672 32.1746H137.769C134.183 32.1746 131.276 35.1077 131.276 38.726V70.2435C131.276 73.8618 134.183 76.795 137.769 76.795H148.672C152.258 76.795 155.165 73.8618 155.165 70.2435V38.726C155.165 35.1077 152.258 32.1746 148.672 32.1746Z" fill="#242DA8"/>
</g>
<path d="M11.5481 103.182C12.073 104.144 12.6709 105.34 13.3416 106.769C14.0415 108.169 14.7559 109.7 15.485 111.362C16.2432 112.995 16.9868 114.672 17.7159 116.392C18.4449 118.113 19.1302 119.731 19.7718 121.248C20.4134 119.731 21.0987 118.113 21.8277 116.392C22.5568 114.672 23.2858 112.995 24.0149 111.362C24.7731 109.7 25.4876 108.169 26.1583 106.769C26.8582 105.34 27.4706 104.144 27.9955 103.182H34.207C34.4986 105.194 34.7611 107.454 34.9943 109.962C35.2568 112.441 35.4755 115.036 35.6505 117.748C35.8546 120.431 36.0296 123.129 36.1754 125.841C36.3504 128.553 36.4962 131.105 36.6128 133.496H29.9639C29.8764 130.55 29.7598 127.343 29.614 123.872C29.4682 120.402 29.2494 116.903 28.9578 113.374C28.4329 114.599 27.8497 115.955 27.2081 117.442C26.5665 118.929 25.925 120.417 25.2834 121.904C24.671 123.391 24.0732 124.82 23.49 126.191C22.9067 127.532 22.411 128.684 22.0027 129.646H17.2347C16.8264 128.684 16.3307 127.532 15.7475 126.191C15.1642 124.82 14.5518 123.391 13.9103 121.904C13.2979 120.417 12.6709 118.929 12.0293 117.442C11.3877 115.955 10.8045 114.599 10.2796 113.374C9.98797 116.903 9.76926 120.402 9.62345 123.872C9.47764 127.343 9.36099 130.55 9.2735 133.496H2.62458C2.74122 131.105 2.87245 128.553 3.01826 125.841C3.19323 123.129 3.36821 120.431 3.54318 117.748C3.74731 115.036 3.96603 112.441 4.19932 109.962C4.46178 107.454 4.73882 105.194 5.03044 103.182H11.5481ZM41.226 122.166C41.226 120.125 41.5322 118.346 42.1446 116.83C42.7862 115.284 43.6173 114.001 44.638 112.98C45.6586 111.96 46.8251 111.187 48.1374 110.662C49.4788 110.137 50.8494 109.875 52.2492 109.875C55.5154 109.875 58.0962 110.881 59.9917 112.893C61.8873 114.876 62.835 117.807 62.835 121.685C62.835 122.064 62.8204 122.487 62.7913 122.954C62.7621 123.391 62.7329 123.785 62.7038 124.135H47.9187C48.0645 125.476 48.6915 126.541 49.7996 127.328C50.9078 128.115 52.395 128.509 54.2614 128.509C55.457 128.509 56.6235 128.407 57.7608 128.203C58.9273 127.97 59.8751 127.693 60.6041 127.372L61.479 132.665C61.129 132.84 60.6624 133.015 60.0792 133.19C59.496 133.365 58.8398 133.51 58.1108 133.627C57.4109 133.773 56.6527 133.89 55.8361 133.977C55.0196 134.065 54.2031 134.108 53.3865 134.108C51.316 134.108 49.508 133.802 47.9624 133.19C46.446 132.577 45.1774 131.746 44.1568 130.696C43.1653 129.617 42.4216 128.349 41.9259 126.891C41.4593 125.433 41.226 123.858 41.226 122.166ZM56.536 119.673C56.5069 119.119 56.4048 118.58 56.2298 118.055C56.084 117.53 55.8361 117.063 55.4862 116.655C55.1654 116.247 54.7426 115.911 54.2177 115.649C53.7219 115.386 53.0949 115.255 52.3367 115.255C51.6077 115.255 50.9807 115.386 50.4558 115.649C49.9308 115.882 49.4934 116.203 49.1435 116.611C48.7935 117.019 48.5165 117.501 48.3124 118.055C48.1374 118.58 48.0062 119.119 47.9187 119.673H56.536ZM73.4201 121.816C73.4201 123.829 73.8721 125.447 74.7762 126.672C75.6802 127.897 77.0216 128.509 78.8005 128.509C79.3837 128.509 79.9232 128.495 80.419 128.465C80.9147 128.407 81.323 128.349 81.6438 128.29V116.436C81.2355 116.174 80.696 115.955 80.0253 115.78C79.3837 115.605 78.7276 115.518 78.0569 115.518C74.9657 115.518 73.4201 117.617 73.4201 121.816ZM88.1615 132.752C87.5783 132.927 86.9075 133.102 86.1493 133.277C85.3911 133.423 84.5892 133.554 83.7435 133.671C82.9269 133.787 82.0812 133.875 81.2064 133.933C80.3607 134.021 79.5441 134.065 78.7568 134.065C76.8612 134.065 75.1698 133.787 73.6826 133.233C72.1953 132.679 70.9414 131.892 69.9207 130.871C68.9 129.821 68.1126 128.567 67.5586 127.109C67.0337 125.622 66.7712 123.96 66.7712 122.123C66.7712 120.256 67.0045 118.58 67.4711 117.092C67.9377 115.576 68.6084 114.293 69.4833 113.243C70.3581 112.193 71.4225 111.391 72.6765 110.837C73.9596 110.283 75.4177 110.006 77.0508 110.006C77.9548 110.006 78.7568 110.093 79.4566 110.268C80.1857 110.443 80.9147 110.691 81.6438 111.012V100.601L88.1615 99.5513V132.752Z" fill="#2B2B2B"/>
<path d="M109.006 121.816C109.006 117.617 107.46 115.518 104.369 115.518C103.698 115.518 103.027 115.605 102.357 115.78C101.715 115.955 101.19 116.174 100.782 116.436V128.29C101.103 128.349 101.511 128.407 102.007 128.465C102.503 128.495 103.042 128.509 103.625 128.509C105.404 128.509 106.746 127.897 107.65 126.672C108.554 125.447 109.006 123.829 109.006 121.816ZM115.655 121.991C115.655 123.829 115.378 125.491 114.823 126.978C114.299 128.465 113.526 129.734 112.505 130.784C111.484 131.834 110.23 132.65 108.743 133.233C107.256 133.787 105.565 134.065 103.669 134.065C102.882 134.065 102.051 134.021 101.176 133.933C100.33 133.875 99.4843 133.787 98.6386 133.671C97.8221 133.554 97.0347 133.423 96.2765 133.277C95.5183 133.102 94.8475 132.927 94.2643 132.752V100.601L100.782 99.5513V111.012C101.511 110.691 102.269 110.443 103.057 110.268C103.844 110.093 104.69 110.006 105.594 110.006C107.227 110.006 108.67 110.298 109.924 110.881C111.178 111.435 112.228 112.237 113.074 113.287C113.919 114.336 114.561 115.605 114.998 117.092C115.436 118.55 115.655 120.183 115.655 121.991ZM129.85 133.933C127.954 133.904 126.409 133.7 125.213 133.321C124.047 132.942 123.113 132.417 122.414 131.746C121.743 131.046 121.276 130.215 121.014 129.253C120.78 128.261 120.664 127.153 120.664 125.928V100.601L127.182 99.5513V124.616C127.182 125.199 127.225 125.724 127.313 126.191C127.4 126.657 127.561 127.051 127.794 127.372C128.056 127.693 128.421 127.955 128.888 128.159C129.354 128.363 129.981 128.495 130.768 128.553L129.85 133.933ZM156.026 121.948C156.026 123.756 155.763 125.418 155.239 126.934C154.714 128.422 153.955 129.705 152.964 130.784C151.972 131.834 150.777 132.65 149.377 133.233C148.006 133.817 146.461 134.108 144.74 134.108C143.049 134.108 141.503 133.817 140.103 133.233C138.733 132.65 137.552 131.834 136.56 130.784C135.569 129.705 134.796 128.422 134.242 126.934C133.688 125.418 133.411 123.756 133.411 121.948C133.411 120.14 133.688 118.492 134.242 117.005C134.825 115.518 135.613 114.249 136.604 113.199C137.625 112.149 138.82 111.333 140.191 110.75C141.591 110.166 143.107 109.875 144.74 109.875C146.402 109.875 147.919 110.166 149.289 110.75C150.689 111.333 151.885 112.149 152.876 113.199C153.868 114.249 154.641 115.518 155.195 117.005C155.749 118.492 156.026 120.14 156.026 121.948ZM149.377 121.948C149.377 119.936 148.969 118.361 148.152 117.223C147.365 116.057 146.227 115.474 144.74 115.474C143.253 115.474 142.101 116.057 141.285 117.223C140.468 118.361 140.06 119.936 140.06 121.948C140.06 123.96 140.468 125.564 141.285 126.759C142.101 127.926 143.253 128.509 144.74 128.509C146.227 128.509 147.365 127.926 148.152 126.759C148.969 125.564 149.377 123.96 149.377 121.948ZM159.981 121.991C159.981 120.329 160.244 118.769 160.769 117.311C161.323 115.824 162.11 114.541 163.131 113.462C164.151 112.353 165.391 111.479 166.849 110.837C168.307 110.195 169.969 109.875 171.836 109.875C173.06 109.875 174.183 109.991 175.204 110.225C176.224 110.429 177.216 110.735 178.178 111.143L176.822 116.349C176.21 116.115 175.539 115.911 174.81 115.736C174.081 115.561 173.265 115.474 172.36 115.474C170.436 115.474 168.992 116.072 168.03 117.267C167.097 118.463 166.63 120.038 166.63 121.991C166.63 124.062 167.068 125.666 167.942 126.803C168.846 127.94 170.407 128.509 172.623 128.509C173.41 128.509 174.256 128.436 175.16 128.29C176.064 128.145 176.895 127.911 177.653 127.591L178.572 132.927C177.814 133.248 176.866 133.525 175.729 133.758C174.591 133.992 173.337 134.108 171.967 134.108C169.867 134.108 168.059 133.802 166.543 133.19C165.026 132.548 163.772 131.688 162.781 130.609C161.818 129.53 161.104 128.261 160.637 126.803C160.2 125.316 159.981 123.712 159.981 121.991ZM189.464 118.798C190.106 118.098 190.762 117.369 191.432 116.611C192.132 115.853 192.803 115.109 193.445 114.38C194.086 113.622 194.684 112.908 195.238 112.237C195.821 111.566 196.317 110.983 196.725 110.487H204.468C202.922 112.266 201.406 113.972 199.919 115.605C198.46 117.209 196.857 118.871 195.107 120.592C195.982 121.379 196.886 122.327 197.819 123.435C198.752 124.514 199.656 125.637 200.531 126.803C201.406 127.97 202.208 129.136 202.937 130.303C203.666 131.469 204.278 132.534 204.774 133.496H197.294C196.827 132.738 196.288 131.907 195.675 131.003C195.092 130.069 194.465 129.151 193.795 128.247C193.124 127.314 192.409 126.424 191.651 125.578C190.922 124.733 190.193 124.018 189.464 123.435V133.496H182.946V100.601L189.464 99.5513V118.798Z" fill="#D30837"/>
<path d="M65.4053 153.418C67.5341 153.418 69.1672 153.827 70.3045 154.643C71.4564 155.445 72.0324 156.648 72.0324 158.252C72.0324 159.127 71.872 159.878 71.5512 160.505C71.245 161.117 70.793 161.62 70.1951 162.014C69.6119 162.393 68.8974 162.67 68.0517 162.845C67.206 163.02 66.251 163.107 65.1866 163.107H63.5025V168.728H61.3809V153.79C61.9788 153.644 62.6422 153.549 63.3712 153.506C64.1149 153.447 64.7929 153.418 65.4053 153.418ZM65.5803 155.277C64.6762 155.277 63.9837 155.299 63.5025 155.343V161.292H65.0991C65.8281 161.292 66.4843 161.248 67.0675 161.161C67.6508 161.059 68.1392 160.898 68.5329 160.68C68.9412 160.446 69.2547 160.133 69.4734 159.739C69.6921 159.345 69.8015 158.842 69.8015 158.23C69.8015 157.647 69.6848 157.166 69.4515 156.786C69.2328 156.407 68.9266 156.108 68.5329 155.89C68.1538 155.656 67.7091 155.496 67.1988 155.409C66.6884 155.321 66.1489 155.277 65.5803 155.277ZM77.9998 167.263C78.481 167.263 78.9039 167.256 79.2684 167.241C79.6475 167.212 79.961 167.168 80.2089 167.11V163.72C80.0631 163.647 79.8225 163.588 79.4871 163.545C79.1663 163.486 78.7726 163.457 78.306 163.457C77.9998 163.457 77.6718 163.479 77.3218 163.523C76.9865 163.567 76.673 163.661 76.3814 163.807C76.1043 163.938 75.871 164.128 75.6815 164.376C75.4919 164.609 75.3971 164.923 75.3971 165.316C75.3971 166.045 75.6304 166.556 76.097 166.847C76.5636 167.124 77.1979 167.263 77.9998 167.263ZM77.8249 157.071C78.6414 157.071 79.3267 157.18 79.8808 157.399C80.4494 157.603 80.9015 157.902 81.2368 158.296C81.5868 158.675 81.8346 159.134 81.9804 159.673C82.1263 160.198 82.1992 160.782 82.1992 161.423V168.531C82.0242 168.561 81.7763 168.604 81.4555 168.663C81.1493 168.706 80.7994 168.75 80.4057 168.794C80.012 168.838 79.5819 168.874 79.1153 168.903C78.6633 168.947 78.2113 168.969 77.7593 168.969C77.1177 168.969 76.5272 168.903 75.9877 168.772C75.4482 168.641 74.9816 168.437 74.5879 168.16C74.1942 167.868 73.888 167.489 73.6693 167.022C73.4506 166.556 73.3412 165.994 73.3412 165.338C73.3412 164.711 73.4652 164.172 73.713 163.72C73.9755 163.268 74.3254 162.903 74.7629 162.626C75.2003 162.349 75.7106 162.145 76.2939 162.014C76.8771 161.883 77.4895 161.817 78.1311 161.817C78.3352 161.817 78.5466 161.831 78.7653 161.861C78.9841 161.875 79.1882 161.904 79.3777 161.948C79.5819 161.977 79.7569 162.006 79.9027 162.036C80.0485 162.065 80.1505 162.087 80.2089 162.101V161.533C80.2089 161.197 80.1724 160.869 80.0995 160.548C80.0266 160.213 79.8954 159.921 79.7058 159.673C79.5163 159.411 79.2538 159.207 78.9184 159.061C78.5977 158.901 78.1748 158.82 77.6499 158.82C76.9792 158.82 76.3886 158.872 75.8783 158.974C75.3826 159.061 75.0107 159.156 74.7629 159.258L74.5223 157.574C74.7847 157.457 75.2222 157.348 75.8346 157.246C76.447 157.129 77.1104 157.071 77.8249 157.071ZM88.2239 167.263C89.055 167.263 89.6674 167.154 90.0611 166.935C90.4694 166.716 90.6735 166.366 90.6735 165.885C90.6735 165.389 90.4767 164.996 90.083 164.704C89.6893 164.412 89.0404 164.084 88.1364 163.72C87.699 163.545 87.2761 163.37 86.8679 163.195C86.4742 163.005 86.1315 162.787 85.8399 162.539C85.5483 162.291 85.315 161.992 85.14 161.642C84.9651 161.292 84.8776 160.862 84.8776 160.351C84.8776 159.345 85.2494 158.551 85.993 157.968C86.7366 157.37 87.75 157.071 89.0331 157.071C89.3539 157.071 89.6747 157.093 89.9955 157.136C90.3163 157.166 90.6152 157.209 90.8922 157.268C91.1693 157.311 91.4098 157.362 91.614 157.421C91.8327 157.479 92.0004 157.53 92.117 157.574L91.7452 159.324C91.5265 159.207 91.1838 159.09 90.7172 158.974C90.2507 158.842 89.6893 158.777 89.0331 158.777C88.4645 158.777 87.9687 158.893 87.5459 159.127C87.123 159.345 86.9116 159.695 86.9116 160.177C86.9116 160.424 86.9554 160.643 87.0428 160.833C87.1449 161.022 87.2907 161.197 87.4803 161.358C87.6844 161.503 87.9323 161.642 88.2239 161.773C88.5155 161.904 88.8655 162.043 89.2737 162.189C89.8132 162.393 90.2944 162.597 90.7172 162.801C91.1401 162.991 91.4973 163.217 91.7889 163.479C92.0951 163.742 92.3284 164.062 92.4888 164.441C92.6492 164.806 92.7294 165.258 92.7294 165.797C92.7294 166.847 92.3357 167.642 91.5484 168.181C90.7756 168.721 89.6674 168.991 88.2239 168.991C87.2178 168.991 86.4304 168.903 85.8618 168.728C85.2931 168.568 84.9067 168.444 84.7026 168.356L85.0744 166.607C85.3077 166.694 85.6795 166.825 86.1899 167C86.7002 167.175 87.3782 167.263 88.2239 167.263ZM97.9849 167.263C98.816 167.263 99.4284 167.154 99.8221 166.935C100.23 166.716 100.434 166.366 100.434 165.885C100.434 165.389 100.238 164.996 99.844 164.704C99.4503 164.412 98.8014 164.084 97.8974 163.72C97.46 163.545 97.0371 163.37 96.6289 163.195C96.2352 163.005 95.8925 162.787 95.6009 162.539C95.3093 162.291 95.076 161.992 94.901 161.642C94.726 161.292 94.6386 160.862 94.6386 160.351C94.6386 159.345 95.0104 158.551 95.754 157.968C96.4976 157.37 97.511 157.071 98.7941 157.071C99.1149 157.071 99.4357 157.093 99.7565 157.136C100.077 157.166 100.376 157.209 100.653 157.268C100.93 157.311 101.171 157.362 101.375 157.421C101.594 157.479 101.761 157.53 101.878 157.574L101.506 159.324C101.287 159.207 100.945 159.09 100.478 158.974C100.012 158.842 99.4503 158.777 98.7941 158.777C98.2255 158.777 97.7297 158.893 97.3069 159.127C96.884 159.345 96.6726 159.695 96.6726 160.177C96.6726 160.424 96.7163 160.643 96.8038 160.833C96.9059 161.022 97.0517 161.197 97.2413 161.358C97.4454 161.503 97.6933 161.642 97.9849 161.773C98.2765 161.904 98.6265 162.043 99.0347 162.189C99.5742 162.393 100.055 162.597 100.478 162.801C100.901 162.991 101.258 163.217 101.55 163.479C101.856 163.742 102.089 164.062 102.25 164.441C102.41 164.806 102.49 165.258 102.49 165.797C102.49 166.847 102.097 167.642 101.309 168.181C100.537 168.721 99.4284 168.991 97.9849 168.991C96.9788 168.991 96.1914 168.903 95.6228 168.728C95.0541 168.568 94.6677 168.444 94.4636 168.356L94.8354 166.607C95.0687 166.694 95.4405 166.825 95.9508 167C96.4612 167.175 97.1392 167.263 97.9849 167.263ZM112.995 163.064C112.995 161.737 112.667 160.716 112.011 160.002C111.355 159.287 110.48 158.93 109.386 158.93C108.774 158.93 108.293 158.952 107.943 158.995C107.607 159.039 107.338 159.09 107.133 159.149V166.322C107.381 166.527 107.739 166.723 108.205 166.913C108.672 167.102 109.182 167.197 109.736 167.197C110.319 167.197 110.815 167.095 111.223 166.891C111.646 166.672 111.989 166.381 112.251 166.016C112.514 165.637 112.703 165.2 112.82 164.704C112.937 164.194 112.995 163.647 112.995 163.064ZM115.117 163.064C115.117 163.924 115 164.719 114.767 165.448C114.548 166.177 114.22 166.804 113.782 167.328C113.345 167.853 112.805 168.262 112.164 168.553C111.537 168.845 110.815 168.991 109.999 168.991C109.343 168.991 108.759 168.903 108.249 168.728C107.753 168.553 107.381 168.386 107.133 168.225V172.774H105.099V157.705C105.581 157.588 106.178 157.464 106.893 157.333C107.622 157.187 108.46 157.115 109.408 157.115C110.283 157.115 111.07 157.253 111.77 157.53C112.47 157.807 113.068 158.201 113.564 158.711C114.059 159.221 114.439 159.848 114.701 160.592C114.978 161.321 115.117 162.145 115.117 163.064ZM128.018 163.042C128.018 163.946 127.887 164.762 127.624 165.491C127.362 166.22 126.99 166.847 126.509 167.372C126.042 167.897 125.481 168.305 124.825 168.597C124.168 168.874 123.454 169.013 122.681 169.013C121.908 169.013 121.194 168.874 120.538 168.597C119.882 168.305 119.313 167.897 118.832 167.372C118.365 166.847 118.001 166.22 117.738 165.491C117.476 164.762 117.345 163.946 117.345 163.042C117.345 162.152 117.476 161.343 117.738 160.614C118.001 159.87 118.365 159.236 118.832 158.711C119.313 158.186 119.882 157.785 120.538 157.508C121.194 157.217 121.908 157.071 122.681 157.071C123.454 157.071 124.168 157.217 124.825 157.508C125.481 157.785 126.042 158.186 126.509 158.711C126.99 159.236 127.362 159.87 127.624 160.614C127.887 161.343 128.018 162.152 128.018 163.042ZM125.896 163.042C125.896 161.759 125.605 160.745 125.021 160.002C124.453 159.243 123.673 158.864 122.681 158.864C121.69 158.864 120.902 159.243 120.319 160.002C119.75 160.745 119.466 161.759 119.466 163.042C119.466 164.325 119.75 165.345 120.319 166.104C120.902 166.847 121.69 167.219 122.681 167.219C123.673 167.219 124.453 166.847 125.021 166.104C125.605 165.345 125.896 164.325 125.896 163.042ZM135.079 157.115C135.254 157.115 135.451 157.129 135.669 157.158C135.903 157.173 136.129 157.202 136.347 157.246C136.566 157.275 136.763 157.311 136.938 157.355C137.128 157.384 137.266 157.413 137.354 157.443L137.004 159.214C136.843 159.156 136.573 159.09 136.194 159.017C135.83 158.93 135.356 158.886 134.773 158.886C134.394 158.886 134.014 158.93 133.635 159.017C133.271 159.09 133.03 159.141 132.914 159.17V168.728H130.88V157.836C131.361 157.661 131.959 157.501 132.673 157.355C133.388 157.195 134.189 157.115 135.079 157.115ZM141.219 157.355H145.528V159.061H141.219V164.31C141.219 164.879 141.263 165.353 141.35 165.732C141.438 166.096 141.569 166.388 141.744 166.607C141.919 166.811 142.138 166.957 142.4 167.044C142.663 167.132 142.969 167.175 143.319 167.175C143.931 167.175 144.42 167.11 144.784 166.979C145.163 166.833 145.426 166.731 145.572 166.672L145.965 168.356C145.761 168.459 145.404 168.582 144.894 168.728C144.383 168.889 143.8 168.969 143.144 168.969C142.371 168.969 141.729 168.874 141.219 168.685C140.723 168.48 140.322 168.181 140.016 167.788C139.71 167.394 139.491 166.913 139.36 166.344C139.243 165.761 139.185 165.09 139.185 164.332V154.184L141.219 153.834V157.355Z" fill="#2B2B2B"/>
<defs>
<linearGradient id="paint0_linear_221_112" x1="88.7802" y1="8.3183" x2="112.641" y2="40.0013" gradientUnits="userSpaceOnUse">
<stop stop-color="#242DA9"/>
<stop offset="1" stop-color="#D30837"/>
</linearGradient>
<linearGradient id="paint1_linear_221_112" x1="63.151" y1="38.574" x2="90.4068" y2="64.4422" gradientUnits="userSpaceOnUse">
<stop stop-color="#242DA9"/>
<stop offset="1" stop-color="#D30837"/>
</linearGradient>
<clipPath id="clip0_221_112">
<rect width="104.33" height="76.7986" fill="white" transform="translate(50.835)"/>
</clipPath>
</defs>
</svg>
