<svg width="206" height="173" viewBox="0 0 206 173" fill="none" xmlns="http://www.w3.org/2000/svg">
<g clip-path="url(#clip0_221_112)">
<path d="M101.689 38.6517C101.667 35.2223 100.308 31.9393 97.9051 29.5139C95.5021 27.0885 92.2489 25.716 88.8501 25.6936L101.626 12.8022C101.646 16.232 103.005 19.5155 105.409 21.9411C107.812 24.3667 111.065 25.739 114.465 25.7604L101.689 38.6517Z" fill="url(#paint0_linear_221_112)"/>
<path d="M76.1624 38.6517C76.1837 35.2216 77.5435 31.9381 79.9473 29.5126C82.3511 27.0871 85.6052 25.715 89.0046 25.6936L76.2286 12.8022C76.2074 16.2324 74.8476 19.5159 72.4438 21.9414C70.04 24.3669 66.7859 25.739 63.3865 25.7604L76.1624 38.6517Z" fill="#1B227F"/>
<path d="M115.627 25.7531C117.367 25.9245 119.123 25.738 120.789 25.2049C122.455 24.6717 123.996 23.803 125.32 22.6512C126.644 21.4995 127.722 20.0887 128.49 18.5043C129.257 16.9199 129.699 15.1948 129.786 13.4333L141.234 26.8332C139.495 26.6612 137.739 26.8472 136.072 27.3799C134.406 27.9126 132.864 28.7809 131.54 29.9323C130.216 31.0837 129.137 32.4942 128.369 34.0784C127.601 35.6627 127.16 37.3878 127.071 39.1492L115.627 25.7531Z" fill="#A8062C"/>
<path d="M76.2287 64.2045C76.2271 60.7803 74.8903 57.4942 72.5073 55.0563C70.1243 52.6184 66.8864 51.2245 63.4932 51.1758L76.3684 38.355C76.37 41.7795 77.7066 45.066 80.0895 47.5044C82.4725 49.9429 85.7104 51.3376 89.1039 51.3874L76.2287 64.2045Z" fill="url(#paint1_linear_221_112)"/>
<path d="M95.1998 0H82.788C79.2021 0 76.2952 2.93319 76.2952 6.55145V19.0753C76.2952 22.6936 79.2021 25.6268 82.788 25.6268H95.1998C98.7856 25.6268 101.693 22.6936 101.693 19.0753V6.55145C101.693 2.93319 98.7856 0 95.1998 0Z" fill="#242DA8"/>
<path d="M120.597 25.6899H108.185C104.599 25.6899 101.692 28.6231 101.692 32.2414V44.7653C101.692 48.3835 104.599 51.3167 108.185 51.3167H120.597C124.183 51.3167 127.09 48.3835 127.09 44.7653V32.2414C127.09 28.6231 124.183 25.6899 120.597 25.6899Z" fill="#D30837"/>
<path d="M148.676 1.26562H136.264C132.678 1.26562 129.771 4.19881 129.771 7.81708V20.3409C129.771 23.9592 132.678 26.8924 136.264 26.8924H148.676C152.262 26.8924 155.169 23.9592 155.169 20.3409V7.81708C155.169 4.19881 152.262 1.26562 148.676 1.26562Z" fill="#D30837"/>
<path d="M69.7395 25.6899H57.3278C53.7419 25.6899 50.835 28.6231 50.835 32.2414V44.7653C50.835 48.3835 53.7419 51.3167 57.3278 51.3167H69.7395C73.3254 51.3167 76.2324 48.3835 76.2324 44.7653V32.2414C76.2324 28.6231 73.3254 25.6899 69.7395 25.6899Z" fill="#242DA8"/>
<path d="M94.9937 51.1719H82.5819C78.996 51.1719 76.0891 54.1051 76.0891 57.7233V70.2472C76.0891 73.8655 78.996 76.7986 82.5819 76.7986H94.9937C98.5796 76.7986 101.487 73.8655 101.487 70.2472V57.7233C101.487 54.1051 98.5796 51.1719 94.9937 51.1719Z" fill="#D30837"/>
<path d="M148.672 32.1746H137.769C134.183 32.1746 131.276 35.1077 131.276 38.726V70.2435C131.276 73.8618 134.183 76.795 137.769 76.795H148.672C152.258 76.795 155.165 73.8618 155.165 70.2435V38.726C155.165 35.1077 152.258 32.1746 148.672 32.1746Z" fill="#242DA8"/>
</g>
<path d="M11.5481 103.182C12.073 104.144 12.6709 105.34 13.3416 106.769C14.0415 108.169 14.7559 109.7 15.485 111.362C16.2432 112.995 16.9868 114.672 17.7159 116.392C18.4449 118.113 19.1302 119.731 19.7718 121.248C20.4134 119.731 21.0987 118.113 21.8277 116.392C22.5568 114.672 23.2858 112.995 24.0149 111.362C24.7731 109.7 25.4876 108.169 26.1583 106.769C26.8582 105.34 27.4706 104.144 27.9955 103.182H34.207C34.4986 105.194 34.7611 107.454 34.9943 109.962C35.2568 112.441 35.4755 115.036 35.6505 117.748C35.8546 120.431 36.0296 123.129 36.1754 125.841C36.3504 128.553 36.4962 131.105 36.6128 133.496H29.9639C29.8764 130.55 29.7598 127.343 29.614 123.872C29.4682 120.402 29.2494 116.903 28.9578 113.374C28.4329 114.599 27.8497 115.955 27.2081 117.442C26.5665 118.929 25.925 120.417 25.2834 121.904C24.671 123.391 24.0732 124.82 23.49 126.191C22.9067 127.532 22.411 128.684 22.0027 129.646H17.2347C16.8264 128.684 16.3307 127.532 15.7475 126.191C15.1642 124.82 14.5518 123.391 13.9103 121.904C13.2979 120.417 12.6709 118.929 12.0293 117.442C11.3877 115.955 10.8045 114.599 10.2796 113.374C9.98797 116.903 9.76926 120.402 9.62345 123.872C9.47764 127.343 9.36099 130.55 9.2735 133.496H2.62458C2.74122 131.105 2.87245 128.553 3.01826 125.841C3.19323 123.129 3.36821 120.431 3.54318 117.748C3.74731 115.036 3.96603 112.441 4.19932 109.962C4.46178 107.454 4.73882 105.194 5.03044 103.182H11.5481ZM41.226 122.166C41.226 120.125 41.5322 118.346 42.1446 116.83C42.7862 115.284 43.6173 114.001 44.638 112.98C45.6586 111.96 46.8251 111.187 48.1374 110.662C49.4788 110.137 50.8494 109.875 52.2492 109.875C55.5154 109.875 58.0962 110.881 59.9917 112.893C61.8873 114.876 62.835 117.807 62.835 121.685C62.835 122.064 62.8204 122.487 62.7913 122.954C62.7621 123.391 62.7329 123.785 62.7038 124.135H47.9187C48.0645 125.476 48.6915 126.541 49.7996 127.328C50.9078 128.115 52.395 128.509 54.2614 128.509C55.457 128.509 56.6235 128.407 57.7608 128.203C58.9273 127.97 59.8751 127.693 60.6041 127.372L61.479 132.665C61.129 132.84 60.6624 133.015 60.0792 133.19C59.496 133.365 58.8398 133.51 58.1108 133.627C57.4109 133.773 56.6527 133.89 55.8361 133.977C55.0196 134.065 54.2031 134.108 53.3865 134.108C51.316 134.108 49.508 133.802 47.9624 133.19C46.446 132.577 45.1774 131.746 44.1568 130.696C43.1653 129.617 42.4216 128.349 41.9259 126.891C41.4593 125.433 41.226 123.858 41.226 122.166ZM56.536 119.673C56.5069 119.119 56.4048 118.58 56.2298 118.055C56.084 117.53 55.8361 117.063 55.4862 116.655C55.1654 116.247 54.7426 115.911 54.2177 115.649C53.7219 115.386 53.0949 115.255 52.3367 115.255C51.6077 115.255 50.9807 115.386 50.4558 115.649C49.9308 115.882 49.4934 116.203 49.1435 116.611C48.7935 117.019 48.5165 117.501 48.3124 118.055C48.1374 118.58 48.0062 119.119 47.9187 119.673H56.536ZM73.4201 121.816C73.4201 123.829 73.8721 125.447 74.7762 126.672C75.6802 127.897 77.0216 128.509 78.8005 128.509C79.3837 128.509 79.9232 128.495 80.419 128.465C80.9147 128.407 81.323 128.349 81.6438 128.29V116.436C81.2355 116.174 80.696 115.955 80.0253 115.78C79.3837 115.605 78.7276 115.518 78.0569 115.518C74.9657 115.518 73.4201 117.617 73.4201 121.816ZM88.1615 132.752C87.5783 132.927 86.9075 133.102 86.1493 133.277C85.3911 133.423 84.5892 133.554 83.7435 133.671C82.9269 133.787 82.0812 133.875 81.2064 133.933C80.3607 134.021 79.5441 134.065 78.7568 134.065C76.8612 134.065 75.1698 133.787 73.6826 133.233C72.1953 132.679 70.9414 131.892 69.9207 130.871C68.9 129.821 68.1126 128.567 67.5586 127.109C67.0337 125.622 66.7712 123.96 66.7712 122.123C66.7712 120.256 67.0045 118.58 67.4711 117.092C67.9377 115.576 68.6084 114.293 69.4833 113.243C70.3581 112.193 71.4225 111.391 72.6765 110.837C73.9596 110.283 75.4177 110.006 77.0508 110.006C77.9548 110.006 78.7568 110.093 79.4566 110.268C80.1857 110.443 80.9147 110.691 81.6438 111.012V100.601L88.1615 99.5513V132.752Z" fill="#2B2B2B"/>
<path d="M109.006 121.816C109.006 117.617 107.46 115.518 104.369 115.518C103.698 115.518 103.027 115.605 102.357 115.78C101.715 115.955 101.19 116.174 100.782 116.436V128.29C101.103 128.349 101.511 128.407 102.007 128.465C102.503 128.495 103.042 128.509 103.625 128.509C105.404 128.509 106.746 127.897 107.65 126.672C108.554 125.447 109.006 123.829 109.006 121.816ZM115.655 121.991C115.655 123.829 115.378 125.491 114.823 126.978C114.299 128.465 113.526 129.734 112.505 130.784C111.484 131.834 110.23 132.65 108.743 133.233C107.256 133.787 105.565 134.065 103.669 134.065C102.882 134.065 102.051 134.021 101.176 133.933C100.33 133.875 99.4843 133.787 98.6386 133.671C97.8221 133.554 97.0347 133.423 96.2765 133.277C95.5183 133.102 94.8475 132.927 94.2643 132.752V100.601L100.782 99.5513V111.012C101.511 110.691 102.269 110.443 103.057 110.268C103.844 110.093 104.69 110.006 105.594 110.006C107.227 110.006 108.67 110.298 109.924 110.881C111.178 111.435 112.228 112.237 113.074 113.287C113.919 114.336 114.561 115.605 114.998 117.092C115.436 118.55 115.655 120.183 115.655 121.991ZM129.85 133.933C127.954 133.904 126.409 133.7 125.213 133.321C124.047 132.942 123.113 132.417 122.414 131.746C121.743 131.046 121.276 130.215 121.014 129.253C120.78 128.261 120.664 127.153 120.664 125.928V100.601L127.182 99.5513V124.616C127.182 125.199 127.225 125.724 127.313 126.191C127.4 126.657 127.561 127.051 127.794 127.372C128.056 127.693 128.421 127.955 128.888 128.159C129.354 128.363 129.981 128.495 130.768 128.553L129.85 133.933ZM156.026 121.948C156.026 123.756 155.763 125.418 155.239 126.934C154.714 128.422 153.955 129.705 152.964 130.784C151.972 131.834 150.777 132.65 149.377 133.233C148.006 133.817 146.461 134.108 144.74 134.108C143.049 134.108 141.503 133.817 140.103 133.233C138.733 132.65 137.552 131.834 136.56 130.784C135.569 129.705 134.796 128.422 134.242 126.934C133.688 125.418 133.411 123.756 133.411 121.948C133.411 120.14 133.688 118.492 134.242 117.005C134.825 115.518 135.613 114.249 136.604 113.199C137.625 112.149 138.82 111.333 140.191 110.75C141.591 110.166 143.107 109.875 144.74 109.875C146.402 109.875 147.919 110.166 149.289 110.75C150.689 111.333 151.885 112.149 152.876 113.199C153.868 114.249 154.641 115.518 155.195 117.005C155.749 118.492 156.026 120.14 156.026 121.948ZM149.377 121.948C149.377 119.936 148.969 118.361 148.152 117.223C147.365 116.057 146.227 115.474 144.74 115.474C143.253 115.474 142.101 116.057 141.285 117.223C140.468 118.361 140.06 119.936 140.06 121.948C140.06 123.96 140.468 125.564 141.285 126.759C142.101 127.926 143.253 128.509 144.74 128.509C146.227 128.509 147.365 127.926 148.152 126.759C148.969 125.564 149.377 123.96 149.377 121.948ZM159.981 121.991C159.981 120.329 160.244 118.769 160.769 117.311C161.323 115.824 162.11 114.541 163.131 113.462C164.151 112.353 165.391 111.479 166.849 110.837C168.307 110.195 169.969 109.875 171.836 109.875C173.06 109.875 174.183 109.991 175.204 110.225C176.224 110.429 177.216 110.735 178.178 111.143L176.822 116.349C176.21 116.115 175.539 115.911 174.81 115.736C174.081 115.561 173.265 115.474 172.36 115.474C170.436 115.474 168.992 116.072 168.03 117.267C167.097 118.463 166.63 120.038 166.63 121.991C166.63 124.062 167.068 125.666 167.942 126.803C168.846 127.94 170.407 128.509 172.623 128.509C173.41 128.509 174.256 128.436 175.16 128.29C176.064 128.145 176.895 127.911 177.653 127.591L178.572 132.927C177.814 133.248 176.866 133.525 175.729 133.758C174.591 133.992 173.337 134.108 171.967 134.108C169.867 134.108 168.059 133.802 166.543 133.19C165.026 132.548 163.772 131.688 162.781 130.609C161.818 129.53 161.104 128.261 160.637 126.803C160.2 125.316 159.981 123.712 159.981 121.991ZM189.464 118.798C190.106 118.098 190.762 117.369 191.432 116.611C192.132 115.853 192.803 115.109 193.445 114.38C194.086 113.622 194.684 112.908 195.238 112.237C195.821 111.566 196.317 110.983 196.725 110.487H204.468C202.922 112.266 201.406 113.972 199.919 115.605C198.46 117.209 196.857 118.871 195.107 120.592C195.982 121.379 196.886 122.327 197.819 123.435C198.752 124.514 199.656 125.637 200.531 126.803C201.406 127.97 202.208 129.136 202.937 130.303C203.666 131.469 204.278 132.534 204.774 133.496H197.294C196.827 132.738 196.288 131.907 195.675 131.003C195.092 130.069 194.465 129.151 193.795 128.247C193.124 127.314 192.409 126.424 191.651 125.578C190.922 124.733 190.193 124.018 189.464 123.435V133.496H182.946V100.601L189.464 99.5513V118.798Z" fill="#D30837"/>
<path d="M69.9053 153.418C72.0341 153.418 73.6672 153.827 74.8045 154.643C75.9564 155.445 76.5324 156.648 76.5324 158.252C76.5324 159.127 76.372 159.878 76.0512 160.505C75.745 161.117 75.293 161.62 74.6951 162.014C74.1119 162.393 73.3974 162.67 72.5517 162.845C71.706 163.02 70.751 163.107 69.6866 163.107H68.0025V168.728H65.8809V153.79C66.4788 153.644 67.1422 153.549 67.8712 153.506C68.6149 153.447 69.2929 153.418 69.9053 153.418ZM70.0803 155.277C69.1762 155.277 68.4837 155.299 68.0025 155.343V161.292H69.5991C70.3281 161.292 70.9843 161.248 71.5675 161.161C72.1508 161.059 72.6392 160.898 73.0329 160.68C73.4412 160.446 73.7547 160.133 73.9734 159.739C74.1921 159.345 74.3015 158.842 74.3015 158.23C74.3015 157.647 74.1848 157.166 73.9515 156.786C73.7328 156.407 73.4266 156.108 73.0329 155.89C72.6538 155.656 72.2091 155.496 71.6988 155.409C71.1884 155.321 70.6489 155.277 70.0803 155.277ZM82.4998 167.263C82.981 167.263 83.4039 167.256 83.7684 167.241C84.1475 167.212 84.461 167.168 84.7089 167.11V163.72C84.5631 163.647 84.3225 163.588 83.9871 163.545C83.6663 163.486 83.2726 163.457 82.806 163.457C82.4998 163.457 82.1718 163.479 81.8218 163.523C81.4865 163.567 81.173 163.661 80.8814 163.807C80.6043 163.938 80.371 164.128 80.1815 164.376C79.9919 164.609 79.8971 164.923 79.8971 165.316C79.8971 166.045 80.1304 166.556 80.597 166.847C81.0636 167.124 81.6979 167.263 82.4998 167.263ZM82.3249 157.071C83.1414 157.071 83.8267 157.18 84.3808 157.399C84.9494 157.603 85.4015 157.902 85.7368 158.296C86.0868 158.675 86.3346 159.134 86.4804 159.673C86.6263 160.198 86.6992 160.782 86.6992 161.423V168.531C86.5242 168.561 86.2763 168.604 85.9555 168.663C85.6493 168.706 85.2994 168.75 84.9057 168.794C84.512 168.838 84.0819 168.874 83.6153 168.903C83.1633 168.947 82.7113 168.969 82.2593 168.969C81.6177 168.969 81.0272 168.903 80.4877 168.772C79.9482 168.641 79.4816 168.437 79.0879 168.16C78.6942 167.868 78.388 167.489 78.1693 167.022C77.9506 166.556 77.8412 165.994 77.8412 165.338C77.8412 164.711 77.9652 164.172 78.213 163.72C78.4755 163.268 78.8254 162.903 79.2629 162.626C79.7003 162.349 80.2106 162.145 80.7939 162.014C81.3771 161.883 81.9895 161.817 82.6311 161.817C82.8352 161.817 83.0466 161.831 83.2653 161.861C83.4841 161.875 83.6882 161.904 83.8777 161.948C84.0819 161.977 84.2569 162.006 84.4027 162.036C84.5485 162.065 84.6505 162.087 84.7089 162.101V161.533C84.7089 161.197 84.6724 160.869 84.5995 160.548C84.5266 160.213 84.3954 159.921 84.2058 159.673C84.0163 159.411 83.7538 159.207 83.4184 159.061C83.0977 158.901 82.6748 158.82 82.1499 158.82C81.4792 158.82 80.8886 158.872 80.3783 158.974C79.8826 159.061 79.5107 159.156 79.2629 159.258L79.0223 157.574C79.2847 157.457 79.7222 157.348 80.3346 157.246C80.947 157.129 81.6104 157.071 82.3249 157.071ZM92.7239 167.263C93.555 167.263 94.1674 167.154 94.5611 166.935C94.9694 166.716 95.1735 166.366 95.1735 165.885C95.1735 165.389 94.9767 164.996 94.583 164.704C94.1893 164.412 93.5404 164.084 92.6364 163.72C92.199 163.545 91.7761 163.37 91.3679 163.195C90.9742 163.005 90.6315 162.787 90.3399 162.539C90.0483 162.291 89.815 161.992 89.64 161.642C89.4651 161.292 89.3776 160.862 89.3776 160.351C89.3776 159.345 89.7494 158.551 90.493 157.968C91.2366 157.37 92.25 157.071 93.5331 157.071C93.8539 157.071 94.1747 157.093 94.4955 157.136C94.8163 157.166 95.1152 157.209 95.3922 157.268C95.6693 157.311 95.9098 157.362 96.114 157.421C96.3327 157.479 96.5004 157.53 96.617 157.574L96.2452 159.324C96.0265 159.207 95.6838 159.09 95.2172 158.974C94.7507 158.842 94.1893 158.777 93.5331 158.777C92.9645 158.777 92.4687 158.893 92.0459 159.127C91.623 159.345 91.4116 159.695 91.4116 160.177C91.4116 160.424 91.4554 160.643 91.5428 160.833C91.6449 161.022 91.7907 161.197 91.9803 161.358C92.1844 161.503 92.4323 161.642 92.7239 161.773C93.0155 161.904 93.3655 162.043 93.7737 162.189C94.3132 162.393 94.7944 162.597 95.2172 162.801C95.6401 162.991 95.9973 163.217 96.2889 163.479C96.5951 163.742 96.8284 164.062 96.9888 164.441C97.1492 164.806 97.2294 165.258 97.2294 165.797C97.2294 166.847 96.8357 167.642 96.0484 168.181C95.2756 168.721 94.1674 168.991 92.7239 168.991C91.7178 168.991 90.9304 168.903 90.3618 168.728C89.7931 168.568 89.4067 168.444 89.2026 168.356L89.5744 166.607C89.8077 166.694 90.1795 166.825 90.6899 167C91.2002 167.175 91.8782 167.263 92.7239 167.263ZM107.734 163.064C107.734 161.737 107.406 160.716 106.75 160.002C106.094 159.287 105.219 158.93 104.125 158.93C103.513 158.93 103.032 158.952 102.682 158.995C102.346 159.039 102.077 159.09 101.872 159.149V166.322C102.12 166.527 102.478 166.723 102.944 166.913C103.411 167.102 103.921 167.197 104.475 167.197C105.058 167.197 105.554 167.095 105.962 166.891C106.385 166.672 106.728 166.381 106.99 166.016C107.253 165.637 107.442 165.2 107.559 164.704C107.676 164.194 107.734 163.647 107.734 163.064ZM109.856 163.064C109.856 163.924 109.739 164.719 109.506 165.448C109.287 166.177 108.959 166.804 108.521 167.328C108.084 167.853 107.544 168.262 106.903 168.553C106.276 168.845 105.554 168.991 104.738 168.991C104.082 168.991 103.498 168.903 102.988 168.728C102.492 168.553 102.12 168.386 101.872 168.225V172.774H99.8384V157.705C100.32 157.588 100.917 157.464 101.632 157.333C102.361 157.187 103.199 157.115 104.147 157.115C105.022 157.115 105.809 157.253 106.509 157.53C107.209 157.807 107.807 158.201 108.303 158.711C108.798 159.221 109.178 159.848 109.44 160.592C109.717 161.321 109.856 162.145 109.856 163.064ZM122.757 163.042C122.757 163.946 122.626 164.762 122.363 165.491C122.101 166.22 121.729 166.847 121.248 167.372C120.781 167.897 120.22 168.305 119.564 168.597C118.907 168.874 118.193 169.013 117.42 169.013C116.647 169.013 115.933 168.874 115.277 168.597C114.621 168.305 114.052 167.897 113.571 167.372C113.104 166.847 112.74 166.22 112.477 165.491C112.215 164.762 112.084 163.946 112.084 163.042C112.084 162.152 112.215 161.343 112.477 160.614C112.74 159.87 113.104 159.236 113.571 158.711C114.052 158.186 114.621 157.785 115.277 157.508C115.933 157.217 116.647 157.071 117.42 157.071C118.193 157.071 118.907 157.217 119.564 157.508C120.22 157.785 120.781 158.186 121.248 158.711C121.729 159.236 122.101 159.87 122.363 160.614C122.626 161.343 122.757 162.152 122.757 163.042ZM120.635 163.042C120.635 161.759 120.344 160.745 119.76 160.002C119.192 159.243 118.412 158.864 117.42 158.864C116.429 158.864 115.641 159.243 115.058 160.002C114.489 160.745 114.205 161.759 114.205 163.042C114.205 164.325 114.489 165.345 115.058 166.104C115.641 166.847 116.429 167.219 117.42 167.219C118.412 167.219 119.192 166.847 119.76 166.104C120.344 165.345 120.635 164.325 120.635 163.042ZM129.818 157.115C129.993 157.115 130.19 157.129 130.408 157.158C130.642 157.173 130.868 157.202 131.086 157.246C131.305 157.275 131.502 157.311 131.677 157.355C131.867 157.384 132.005 157.413 132.093 157.443L131.743 159.214C131.582 159.156 131.312 159.09 130.933 159.017C130.569 158.93 130.095 158.886 129.512 158.886C129.133 158.886 128.753 158.93 128.374 159.017C128.01 159.09 127.769 159.141 127.653 159.17V168.728H125.619V157.836C126.1 157.661 126.698 157.501 127.412 157.355C128.127 157.195 128.928 157.115 129.818 157.115ZM135.958 157.355H140.267V159.061H135.958V164.31C135.958 164.879 136.002 165.353 136.089 165.732C136.177 166.096 136.308 166.388 136.483 166.607C136.658 166.811 136.877 166.957 137.139 167.044C137.402 167.132 137.708 167.175 138.058 167.175C138.67 167.175 139.159 167.11 139.523 166.979C139.902 166.833 140.165 166.731 140.311 166.672L140.704 168.356C140.5 168.459 140.143 168.582 139.633 168.728C139.122 168.889 138.539 168.969 137.883 168.969C137.11 168.969 136.468 168.874 135.958 168.685C135.462 168.48 135.061 168.181 134.755 167.788C134.449 167.394 134.23 166.913 134.099 166.344C133.982 165.761 133.924 165.09 133.924 164.332V154.184L135.958 153.834V157.355Z" fill="#2B2B2B"/>
<defs>
<linearGradient id="paint0_linear_221_112" x1="88.7802" y1="8.3183" x2="112.641" y2="40.0013" gradientUnits="userSpaceOnUse">
<stop stop-color="#242DA9"/>
<stop offset="1" stop-color="#D30837"/>
</linearGradient>
<linearGradient id="paint1_linear_221_112" x1="63.151" y1="38.574" x2="90.4068" y2="64.4422" gradientUnits="userSpaceOnUse">
<stop stop-color="#242DA9"/>
<stop offset="1" stop-color="#D30837"/>
</linearGradient>
<clipPath id="clip0_221_112">
<rect width="104.33" height="76.7986" fill="white" transform="translate(50.835)"/>
</clipPath>
</defs>
</svg>
