<svg width="32" height="32" viewBox="0 0 32 32" fill="none" xmlns="http://www.w3.org/2000/svg">
<path opacity="0.5" d="M25.0001 12V12.9386C25.0001 14.0653 25.3201 15.1666 25.9228 16.104L27.4001 18.4013C28.7481 20.5 27.7188 23.352 25.3734 24.0146C19.2451 25.7506 12.7551 25.7506 6.62675 24.0146C4.28142 23.352 3.25208 20.5 4.60008 18.4013L6.07742 16.104C6.68218 15.1591 7.00289 14.0605 7.00142 12.9386V12C7.00142 6.84529 11.0307 2.66663 16.0001 2.66663C20.9694 2.66663 25.0001 6.84529 25.0001 12Z" fill="#EC7C04"/>
<path d="M9.65723 24.7267C10.0929 26.0655 10.9411 27.2321 12.0803 28.0594C13.2195 28.8867 14.5913 29.3323 15.9992 29.3323C17.4071 29.3323 18.779 28.8867 19.9182 28.0594C21.0574 27.2321 21.9056 26.0655 22.3412 24.7267C18.1479 25.5134 13.8519 25.5134 9.65723 24.7267Z" fill="#EC7C04"/>
</svg>
