<svg width="32" height="33" viewBox="0 0 32 33" fill="none" xmlns="http://www.w3.org/2000/svg">
<path opacity="0.5" d="M4.6185 5.11863C6.57317 3.16663 9.71451 3.16663 15.9998 3.16663C22.2852 3.16663 25.4278 3.16663 27.3798 5.11863C29.3332 7.07329 29.3332 10.2146 29.3332 16.5C29.3332 22.7853 29.3332 25.928 27.3798 27.88C25.4292 29.8333 22.2852 29.8333 15.9998 29.8333C9.71451 29.8333 6.57184 29.8333 4.6185 27.88C2.6665 25.9293 2.6665 22.7853 2.6665 16.5C2.6665 10.2146 2.6665 7.07196 4.6185 5.11863Z" fill="#EFF0FC"/>
<path fill-rule="evenodd" clip-rule="evenodd" d="M21.96 2.46006C22.1475 2.27279 22.4017 2.1676 22.6667 2.1676C22.9317 2.1676 23.1858 2.27279 23.3733 2.46006L30.04 9.12672C30.2273 9.31422 30.3325 9.56839 30.3325 9.83339C30.3325 10.0984 30.2273 10.3526 30.04 10.5401L23.3733 17.2067C23.2818 17.305 23.1714 17.3838 23.0487 17.4384C22.9261 17.4931 22.7936 17.5225 22.6594 17.5248C22.5251 17.5272 22.3917 17.5025 22.2672 17.4522C22.1427 17.4019 22.0296 17.3271 21.9346 17.2321C21.8397 17.1371 21.7648 17.024 21.7145 16.8995C21.6642 16.775 21.6395 16.6416 21.6419 16.5074C21.6442 16.3731 21.6736 16.2407 21.7283 16.118C21.7829 15.9953 21.8618 15.8849 21.96 15.7934L26.92 10.8334H18.6667C16.5973 10.8334 15.3773 11.8427 14.9493 12.2734L14.696 12.5281L14.4387 12.7827C14.0093 13.2094 13 14.4307 13 16.5001V20.5001C13 20.7653 12.8946 21.0196 12.7071 21.2072C12.5196 21.3947 12.2652 21.5001 12 21.5001C11.7348 21.5001 11.4804 21.3947 11.2929 21.2072C11.1054 21.0196 11 20.7653 11 20.5001V16.5001C11 13.7214 12.3693 12.0201 13.028 11.3654L13.2813 11.1134L13.532 10.8614C14.1867 10.2027 15.888 8.83339 18.6667 8.83339H26.92L21.96 3.87339C21.7727 3.68589 21.6675 3.43172 21.6675 3.16672C21.6675 2.90172 21.7727 2.64756 21.96 2.46006Z" fill="#EFF0FC"/>
</svg>
