<svg width="25" height="25" viewBox="0 0 25 25" fill="none" xmlns="http://www.w3.org/2000/svg">
<g clip-path="url(#clip0_257_504)">
<path d="M9.11104 0.838261C6.71307 1.67014 4.64506 3.24907 3.21077 5.34314C1.77649 7.43721 1.05153 9.93603 1.14237 12.4726C1.23322 15.0091 2.13508 17.4497 3.7155 19.4358C5.29591 21.4219 7.47158 22.8488 9.92292 23.507C11.9103 24.0198 13.9924 24.0423 15.9904 23.5726C17.8004 23.1661 19.4738 22.2964 20.8467 21.0489C22.2756 19.7108 23.3127 18.0085 23.8467 16.1251C24.4268 14.077 24.5301 11.9231 24.1485 9.82889H12.9885V14.4583H19.4517C19.3225 15.1966 19.0457 15.9013 18.6378 16.5302C18.23 17.1591 17.6994 17.6992 17.0779 18.1183C16.2888 18.6405 15.3991 18.9918 14.466 19.1495C13.5303 19.3235 12.5705 19.3235 11.6348 19.1495C10.6863 18.9536 9.78912 18.5622 9.00042 18.0001C7.7332 17.1031 6.78168 15.8287 6.28167 14.3589C5.77333 12.8615 5.77333 11.2382 6.28167 9.74076C6.63759 8.69117 7.22598 7.73551 8.00292 6.94514C8.89203 6.02404 10.0177 5.36563 11.2563 5.04215C12.495 4.71868 13.7988 4.74263 15.0248 5.11139C15.9825 5.40524 16.8583 5.91891 17.5823 6.61139C18.311 5.88639 19.0385 5.15951 19.7648 4.43076C20.1398 4.03889 20.5485 3.66576 20.9179 3.26451C19.8127 2.23611 18.5154 1.43583 17.1004 0.909511C14.5236 -0.0261334 11.7041 -0.051278 9.11104 0.838261Z" fill="#FCFCFC"/>
<path d="M9.1107 0.838195C11.7036 -0.0519479 14.5231 -0.0274653 17.1001 0.90757C18.5153 1.43747 19.812 2.2416 20.9157 3.27382C20.5407 3.67507 20.1451 4.05007 19.7626 4.44007C19.0351 5.16632 18.3082 5.89007 17.582 6.61132C16.858 5.91884 15.9822 5.40518 15.0245 5.11132C13.7989 4.74127 12.4951 4.71593 11.2561 5.03809C10.0171 5.36024 8.89079 6.01744 8.0007 6.93757C7.22377 7.72795 6.63538 8.6836 6.27945 9.7332L2.39258 6.72382C3.78384 3.96487 6.19273 1.85449 9.1107 0.838195Z" fill="#D40837"/>
<path d="M1.3614 9.70488C1.57016 8.66945 1.91701 7.66675 2.39265 6.72363L6.27953 9.74051C5.77119 11.2379 5.77119 12.8612 6.27953 14.3586C4.98453 15.3586 3.6889 16.3636 2.39265 17.3736C1.20231 15.0042 0.839275 12.3046 1.3614 9.70488Z" fill="#F8BD00"/>
<path d="M12.9881 9.82715H24.1481C24.5297 11.9214 24.4264 14.0752 23.8463 16.1234C23.3123 18.0068 22.2752 19.709 20.8463 21.0471C19.5919 20.0684 18.3319 19.0971 17.0775 18.1184C17.6994 17.6989 18.2302 17.1582 18.6381 16.5286C19.046 15.8991 19.3226 15.1937 19.4513 14.4546H12.9881C12.9863 12.9134 12.9881 11.3703 12.9881 9.82715Z" fill="#587DBD"/>
<path d="M2.39062 17.3739C3.68687 16.3739 4.9825 15.3689 6.2775 14.3589C6.77851 15.8293 7.73138 17.1037 9 18.0001C9.79116 18.5596 10.6903 18.9478 11.64 19.1401C12.5757 19.3142 13.5355 19.3142 14.4713 19.1401C15.4043 18.9824 16.294 18.6311 17.0831 18.1089C18.3375 19.0876 19.5975 20.0589 20.8519 21.0376C19.4792 22.2859 17.8058 23.1562 15.9956 23.5633C13.9976 24.033 11.9155 24.0104 9.92813 23.4976C8.35632 23.078 6.88814 22.3381 5.61563 21.3245C4.26886 20.255 3.16882 18.9075 2.39062 17.3739Z" fill="#319F43"/>
</g>
<defs>
<clipPath id="clip0_257_504">
<rect width="24" height="24" fill="white" transform="translate(0.75 0.0488281)"/>
</clipPath>
</defs>
</svg>
