<svg width="190" height="125" viewBox="0 0 190 125" fill="none" xmlns="http://www.w3.org/2000/svg">
<g clip-path="url(#clip0_262_2)">
<path d="M93.9972 37.5482C93.981 34.9265 92.9418 32.4167 91.1048 30.5626C89.2678 28.7085 86.7809 27.6592 84.1826 27.6421L93.9494 17.7871C93.9649 20.4091 95.0038 22.9192 96.841 24.7735C98.6782 26.6278 101.166 27.6768 103.764 27.6932L93.9972 37.5482Z" fill="url(#paint0_linear_262_2)"/>
<path d="M74.4836 37.5482C74.4998 34.926 75.5394 32.4158 77.377 30.5616C79.2146 28.7074 81.7023 27.6585 84.301 27.6421L74.5342 17.7871C74.518 20.4093 73.4784 22.9195 71.6408 24.7737C69.8032 26.6279 67.3155 27.6768 64.7168 27.6932L74.4836 37.5482Z" fill="#1B227F"/>
<path d="M104.652 27.6871C105.982 27.8181 107.325 27.6756 108.598 27.268C109.872 26.8604 111.05 26.1963 112.062 25.3158C113.074 24.4354 113.899 23.3569 114.485 22.1456C115.072 20.9344 115.409 19.6156 115.477 18.269L124.228 28.5128C122.898 28.3813 121.556 28.5235 120.282 28.9307C119.008 29.3379 117.83 30.0017 116.817 30.8819C115.805 31.7621 114.981 32.8404 114.393 34.0515C113.806 35.2627 113.469 36.5814 113.401 37.928L104.652 27.6871Z" fill="#A8062C"/>
<path d="M74.5337 57.0819C74.5325 54.4642 73.5106 51.9521 71.6889 50.0884C69.8671 48.2248 67.3918 47.1592 64.7979 47.1219L74.6406 37.3208C74.6418 39.9387 75.6636 42.4511 77.4852 44.3153C79.3069 46.1794 81.7822 47.2456 84.3764 47.2836L74.5337 57.0819Z" fill="url(#paint1_linear_262_2)"/>
<path d="M89.0359 8H79.5475C76.8062 8 74.584 10.2423 74.584 13.0084V22.5824C74.584 25.3485 76.8062 27.5908 79.5475 27.5908H89.0359C91.7772 27.5908 93.9995 25.3485 93.9995 22.5824V13.0084C93.9995 10.2423 91.7772 8 89.0359 8Z" fill="#242DA8"/>
<path d="M108.452 27.6392H98.9635C96.2223 27.6392 94 29.8815 94 32.6475V42.2216C94 44.9877 96.2223 47.23 98.9635 47.23H108.452C111.193 47.23 113.415 44.9877 113.415 42.2216V32.6475C113.415 29.8815 111.193 27.6392 108.452 27.6392Z" fill="#D40837"/>
<path d="M129.918 8.96777H120.429C117.688 8.96777 115.466 11.2101 115.466 13.9761V23.5502C115.466 26.3163 117.688 28.5586 120.429 28.5586H129.918C132.659 28.5586 134.881 26.3163 134.881 23.5502V13.9761C134.881 11.2101 132.659 8.96777 129.918 8.96777Z" fill="#D40837"/>
<path d="M69.573 27.6392H60.0846C57.3433 27.6392 55.1211 29.8815 55.1211 32.6475V42.2216C55.1211 44.9877 57.3433 47.23 60.0846 47.23H69.573C72.3143 47.23 74.5366 44.9877 74.5366 42.2216V32.6475C74.5366 29.8815 72.3143 27.6392 69.573 27.6392Z" fill="#242DA8"/>
<path d="M88.8787 47.1191H79.3903C76.649 47.1191 74.4268 49.3615 74.4268 52.1275V61.7016C74.4268 64.4676 76.649 66.71 79.3903 66.71H88.8787C91.62 66.71 93.8422 64.4676 93.8422 61.7016V52.1275C93.8422 49.3615 91.62 47.1191 88.8787 47.1191Z" fill="#D40837"/>
<path d="M129.914 32.5962H121.579C118.837 32.5962 116.615 34.8385 116.615 37.6046V61.6987C116.615 64.4647 118.837 66.707 121.579 66.707H129.914C132.655 66.707 134.878 64.4647 134.878 61.6987V37.6046C134.878 34.8385 132.655 32.5962 129.914 32.5962Z" fill="#242DA8"/>
</g>
<path d="M25.3282 86.536C25.7294 87.2717 26.1865 88.1857 26.6992 89.2781C27.2343 90.3482 27.7804 91.5186 28.3378 92.7893C28.9174 94.0377 29.4859 95.3196 30.0432 96.6349C30.6005 97.9502 31.1244 99.1875 31.6149 100.347C32.1053 99.1875 32.6292 97.9502 33.1866 96.6349C33.7439 95.3196 34.3012 94.0377 34.8586 92.7893C35.4382 91.5186 35.9844 90.3482 36.4971 89.2781C37.0322 88.1857 37.5003 87.2717 37.9016 86.536H42.6501C42.873 88.0743 43.0737 89.802 43.252 91.7192C43.4527 93.6142 43.6199 95.5983 43.7536 97.6715C43.9097 99.7225 44.0434 101.785 44.1549 103.858C44.2887 105.931 44.4001 107.882 44.4893 109.71H39.4064C39.3395 107.458 39.2504 105.006 39.1389 102.353C39.0274 99.7002 38.8602 97.025 38.6373 94.3275C38.236 95.2639 37.7902 96.3005 37.2997 97.4375C36.8092 98.5744 36.3188 99.7114 35.8283 100.848C35.3602 101.985 34.9032 103.078 34.4573 104.125C34.0114 105.151 33.6324 106.032 33.3203 106.767H29.6754C29.3633 106.032 28.9843 105.151 28.5384 104.125C28.0925 103.078 27.6244 101.985 27.1339 100.848C26.6658 99.7114 26.1865 98.5744 25.696 97.4375C25.2056 96.3005 24.7597 95.2639 24.3584 94.3275C24.1355 97.025 23.9683 99.7002 23.8568 102.353C23.7453 105.006 23.6562 107.458 23.5893 109.71H18.5064C18.5956 107.882 18.6959 105.931 18.8074 103.858C18.9411 101.785 19.0749 99.7225 19.2086 97.6715C19.3647 95.5983 19.5319 93.6142 19.7102 91.7192C19.9109 89.802 20.1227 88.0743 20.3456 86.536H25.3282ZM48.0159 101.049C48.0159 99.4885 48.25 98.1286 48.7182 96.9693C49.2086 95.7878 49.844 94.8069 50.6242 94.0266C51.4045 93.2463 52.2962 92.6555 53.2995 92.2543C54.3249 91.853 55.3727 91.6523 56.4428 91.6523C58.9397 91.6523 60.9126 92.4215 62.3617 93.9597C63.8108 95.4757 64.5353 97.7161 64.5353 100.681C64.5353 100.971 64.5242 101.294 64.5019 101.651C64.4796 101.985 64.4573 102.286 64.435 102.554H53.1323C53.2437 103.579 53.723 104.393 54.5702 104.995C55.4173 105.597 56.5543 105.898 57.9811 105.898C58.8951 105.898 59.7868 105.82 60.6563 105.664C61.548 105.485 62.2725 105.274 62.8299 105.028L63.4987 109.075C63.2311 109.208 62.8744 109.342 62.4286 109.476C61.9827 109.61 61.4811 109.721 60.9238 109.81C60.3887 109.922 59.8091 110.011 59.1849 110.078C58.5607 110.145 57.9365 110.178 57.3123 110.178C55.7294 110.178 54.3472 109.944 53.1657 109.476C52.0064 109.008 51.0367 108.372 50.2564 107.57C49.4984 106.745 48.93 105.775 48.551 104.661C48.1943 103.546 48.0159 102.342 48.0159 101.049ZM59.7199 99.1429C59.6976 98.7193 59.6196 98.3069 59.4859 97.9056C59.3744 97.5043 59.1849 97.1477 58.9174 96.8355C58.6721 96.5234 58.3489 96.2671 57.9476 96.0664C57.5686 95.8658 57.0893 95.7655 56.5097 95.7655C55.9524 95.7655 55.4731 95.8658 55.0718 96.0664C54.6705 96.2448 54.3361 96.49 54.0686 96.8021C53.8011 97.1142 53.5893 97.4821 53.4332 97.9056C53.2995 98.3069 53.1991 98.7193 53.1323 99.1429H59.7199ZM72.6273 100.781C72.6273 102.32 72.9728 103.557 73.6639 104.493C74.355 105.43 75.3805 105.898 76.7404 105.898C77.1863 105.898 77.5987 105.887 77.9777 105.864C78.3567 105.82 78.6688 105.775 78.914 105.731V96.6683C78.6019 96.4677 78.1895 96.3005 77.6767 96.1667C77.1863 96.033 76.6847 95.9661 76.1719 95.9661C73.8088 95.9661 72.6273 97.5712 72.6273 100.781ZM83.8966 109.141C83.4507 109.275 82.9379 109.409 82.3583 109.543C81.7787 109.654 81.1656 109.755 80.5191 109.844C79.8949 109.933 79.2484 110 78.5796 110.044C77.9331 110.111 77.3089 110.145 76.707 110.145C75.2579 110.145 73.9649 109.933 72.8279 109.509C71.6909 109.086 70.7323 108.484 69.9521 107.704C69.1718 106.901 68.5699 105.942 68.1463 104.828C67.745 103.691 67.5444 102.42 67.5444 101.016C67.5444 99.5888 67.7227 98.3069 68.0794 97.1699C68.4361 96.0107 68.9489 95.0298 69.6177 94.2272C70.2865 93.4247 71.1002 92.8116 72.0588 92.388C73.0397 91.9645 74.1544 91.7527 75.4028 91.7527C76.0939 91.7527 76.707 91.8195 77.242 91.9533C77.7993 92.0871 78.3567 92.2766 78.914 92.5218V84.5631L83.8966 83.7605V109.141Z" fill="#2B2B2B"/>
<path d="M99.8313 100.781C99.8313 97.5712 98.6497 95.9661 96.2866 95.9661C95.7739 95.9661 95.2611 96.033 94.7484 96.1667C94.2579 96.3005 93.8566 96.4677 93.5445 96.6683V105.731C93.7898 105.775 94.1019 105.82 94.4808 105.864C94.8598 105.887 95.2723 105.898 95.7181 105.898C97.078 105.898 98.1035 105.43 98.7946 104.493C99.4857 103.557 99.8313 102.32 99.8313 100.781ZM104.914 100.915C104.914 102.32 104.702 103.59 104.279 104.727C103.877 105.864 103.287 106.834 102.506 107.637C101.726 108.439 100.768 109.063 99.6306 109.509C98.4937 109.933 97.2006 110.145 95.7516 110.145C95.1497 110.145 94.5143 110.111 93.8455 110.044C93.199 110 92.5525 109.933 91.906 109.844C91.2818 109.755 90.6798 109.654 90.1002 109.543C89.5206 109.409 89.0078 109.275 88.562 109.141V84.5631L93.5445 83.7605V92.5218C94.1019 92.2766 94.6815 92.0871 95.2834 91.9533C95.8853 91.8195 96.5318 91.7527 97.2229 91.7527C98.4714 91.7527 99.5749 91.9756 100.533 92.4215C101.492 92.845 102.295 93.4581 102.941 94.2607C103.588 95.0632 104.078 96.033 104.413 97.1699C104.747 98.2846 104.914 99.533 104.914 100.915ZM115.766 110.044C114.317 110.022 113.135 109.866 112.221 109.576C111.33 109.286 110.616 108.885 110.081 108.372C109.568 107.837 109.212 107.202 109.011 106.466C108.833 105.708 108.744 104.861 108.744 103.925V84.5631L113.726 83.7605V102.922C113.726 103.368 113.76 103.769 113.826 104.125C113.893 104.482 114.016 104.783 114.194 105.028C114.395 105.274 114.674 105.474 115.03 105.63C115.387 105.786 115.866 105.887 116.468 105.931L115.766 110.044ZM135.777 100.882C135.777 102.264 135.576 103.535 135.175 104.694C134.773 105.831 134.194 106.812 133.436 107.637C132.678 108.439 131.764 109.063 130.694 109.509C129.646 109.955 128.464 110.178 127.149 110.178C125.856 110.178 124.675 109.955 123.605 109.509C122.557 109.063 121.654 108.439 120.896 107.637C120.138 106.812 119.547 105.831 119.124 104.694C118.7 103.535 118.488 102.264 118.488 100.882C118.488 99.4996 118.7 98.24 119.124 97.1031C119.569 95.9661 120.171 94.9963 120.929 94.1938C121.71 93.3912 122.624 92.767 123.671 92.3211C124.741 91.8753 125.901 91.6523 127.149 91.6523C128.42 91.6523 129.579 91.8753 130.627 92.3211C131.697 92.767 132.611 93.3912 133.369 94.1938C134.127 94.9963 134.718 95.9661 135.141 97.1031C135.565 98.24 135.777 99.4996 135.777 100.882ZM130.694 100.882C130.694 99.3436 130.382 98.1397 129.757 97.2703C129.156 96.3785 128.286 95.9327 127.149 95.9327C126.012 95.9327 125.132 96.3785 124.507 97.2703C123.883 98.1397 123.571 99.3436 123.571 100.882C123.571 102.42 123.883 103.646 124.507 104.56C125.132 105.452 126.012 105.898 127.149 105.898C128.286 105.898 129.156 105.452 129.757 104.56C130.382 103.646 130.694 102.42 130.694 100.882ZM138.8 100.915C138.8 99.6445 139.001 98.4518 139.402 97.3371C139.826 96.2002 140.428 95.2193 141.208 94.3944C141.988 93.5473 142.936 92.8785 144.05 92.388C145.165 91.8976 146.436 91.6523 147.863 91.6523C148.799 91.6523 149.657 91.7415 150.438 91.9199C151.218 92.0759 151.976 92.31 152.711 92.6221L151.675 96.6015C151.207 96.4231 150.694 96.2671 150.137 96.1333C149.579 95.9995 148.955 95.9327 148.264 95.9327C146.793 95.9327 145.689 96.3897 144.953 97.3037C144.24 98.2177 143.883 99.4216 143.883 100.915C143.883 102.498 144.218 103.724 144.886 104.594C145.578 105.463 146.77 105.898 148.465 105.898C149.066 105.898 149.713 105.842 150.404 105.731C151.095 105.619 151.731 105.441 152.31 105.196L153.012 109.275C152.433 109.52 151.708 109.732 150.839 109.911C149.969 110.089 149.011 110.178 147.963 110.178C146.358 110.178 144.976 109.944 143.816 109.476C142.657 108.985 141.699 108.328 140.941 107.503C140.205 106.678 139.659 105.708 139.302 104.594C138.968 103.457 138.8 102.231 138.8 100.915ZM161.339 98.4741C161.829 97.9391 162.331 97.3817 162.844 96.8021C163.379 96.2225 163.892 95.654 164.382 95.0967C164.872 94.517 165.329 93.9709 165.753 93.4581C166.199 92.9454 166.578 92.4995 166.89 92.1205H172.809C171.627 93.4804 170.468 94.7846 169.331 96.033C168.216 97.2591 166.99 98.5298 165.653 99.8452C166.322 100.447 167.013 101.172 167.726 102.019C168.439 102.844 169.131 103.702 169.799 104.594C170.468 105.485 171.081 106.377 171.639 107.269C172.196 108.161 172.664 108.974 173.043 109.71H167.325C166.968 109.13 166.556 108.495 166.087 107.804C165.642 107.09 165.162 106.388 164.65 105.697C164.137 104.984 163.591 104.304 163.011 103.657C162.454 103.011 161.896 102.465 161.339 102.019V109.71H156.356V84.5631L161.339 83.7605V98.4741Z" fill="#D40837"/>
<defs>
<linearGradient id="paint0_linear_262_2" x1="84.1292" y1="14.3593" x2="102.37" y2="38.5799" gradientUnits="userSpaceOnUse">
<stop stop-color="#242DA9"/>
<stop offset="1" stop-color="#D30837"/>
</linearGradient>
<linearGradient id="paint1_linear_262_2" x1="64.5363" y1="37.4882" x2="85.3724" y2="57.2636" gradientUnits="userSpaceOnUse">
<stop stop-color="#242DA9"/>
<stop offset="1" stop-color="#D30837"/>
</linearGradient>
<clipPath id="clip0_262_2">
<rect width="79.757" height="58.71" fill="white" transform="translate(55.1211 8)"/>
</clipPath>
</defs>
</svg>
