<svg width="25" height="25" viewBox="0 0 25 25" fill="none" xmlns="http://www.w3.org/2000/svg">
<g clip-path="url(#clip0_257_513)">
<path d="M12.5 2.04883C9.7385 2.04883 7.5 4.28733 7.5 7.04883C7.5 9.81033 9.7385 12.0488 12.5 12.0488C15.2615 12.0488 17.5 9.81033 17.5 7.04883C17.5 4.28733 15.2615 2.04883 12.5 2.04883ZM6.625 14.0488C6.0615 14.0488 5.52108 14.2726 5.12257 14.671C4.72407 15.0695 4.50013 15.6098 4.5 16.1733V16.5488C4.5 18.4263 5.471 19.8323 6.96 20.7388C8.425 21.6303 10.393 22.0488 12.5 22.0488C14.358 22.0488 16.108 21.7238 17.5 21.0353V17.2908C16.9549 16.9268 16.4959 16.448 16.1552 15.888C15.8144 15.328 15.6002 14.7003 15.5275 14.0488H6.625ZM16.535 14.0488C16.4395 13.3853 16.5365 12.7083 16.8145 12.0984C17.0925 11.4884 17.5398 10.9711 18.1033 10.6079C18.6668 10.2448 19.3227 10.0511 19.993 10.05C20.6634 10.0488 21.32 10.2401 21.8847 10.6012C22.4495 10.9623 22.8987 11.478 23.1789 12.087C23.4591 12.696 23.5585 13.3727 23.4653 14.0365C23.3721 14.7003 23.0902 15.3234 22.6532 15.8317C22.2162 16.3401 21.6424 16.7122 21 16.9038V17.0488L22.1465 18.1953C22.2402 18.2891 22.2929 18.4162 22.2929 18.5488C22.2929 18.6814 22.2402 18.8086 22.1465 18.9023L21 20.0488L22.161 21.2098C22.2523 21.301 22.3048 21.4239 22.3076 21.5528C22.3104 21.6818 22.2632 21.8068 22.176 21.9018L20.353 23.8858C20.3074 23.9355 20.2521 23.9754 20.1906 24.0032C20.1291 24.031 20.0627 24.046 19.9952 24.0474C19.9277 24.0488 19.8607 24.0366 19.7981 24.0114C19.7355 23.9862 19.6787 23.9486 19.631 23.9008L18.646 22.9163C18.5524 22.8225 18.4999 22.6954 18.5 22.5628V16.7118C17.9784 16.4642 17.5261 16.0915 17.1833 15.6269C16.8405 15.1623 16.6178 14.6202 16.535 14.0488ZM21 13.0488C21 12.7836 20.8946 12.5293 20.7071 12.3417C20.5196 12.1542 20.2652 12.0488 20 12.0488C19.7348 12.0488 19.4804 12.1542 19.2929 12.3417C19.1054 12.5293 19 12.7836 19 13.0488C19 13.314 19.1054 13.5684 19.2929 13.7559C19.4804 13.9435 19.7348 14.0488 20 14.0488C20.2652 14.0488 20.5196 13.9435 20.7071 13.7559C20.8946 13.5684 21 13.314 21 13.0488Z" fill="#622E8A"/>
</g>
<defs>
<clipPath id="clip0_257_513">
<rect width="24" height="24" fill="white" transform="translate(0.5 0.0488281)"/>
</clipPath>
</defs>
</svg>
