<svg width="82" height="61" viewBox="0 0 82 61" fill="none" xmlns="http://www.w3.org/2000/svg">
<g clip-path="url(#clip0_447_155)">
<path d="M39.8971 30.7296C39.8806 28.0663 38.825 25.5168 36.9588 23.6332C35.0926 21.7497 32.5662 20.6838 29.9268 20.6664L39.8485 10.655C39.8642 13.3186 40.9196 15.8685 42.786 17.7523C44.6523 19.636 47.1791 20.7016 49.8188 20.7183L39.8971 30.7296Z" fill="url(#paint0_linear_447_155)"/>
<path d="M20.0734 30.7296C20.0898 28.0658 21.1459 25.5158 23.0127 23.6322C24.8794 21.7486 27.4066 20.683 30.0465 20.6664L20.1248 10.655C20.1083 13.3188 19.0523 15.8688 17.1855 17.7524C15.3187 19.6361 12.7916 20.7016 10.1516 20.7183L20.0734 30.7296Z" fill="#1B227F"/>
<path d="M50.7217 20.7125C52.0726 20.8456 53.4363 20.7008 54.7302 20.2867C56.024 19.8727 57.2212 19.198 58.2492 18.3036C59.2771 17.4092 60.1145 16.3136 60.7107 15.0831C61.3069 13.8527 61.6494 12.5129 61.7176 11.145L70.608 21.5513C69.2571 21.4177 67.8933 21.5622 66.5993 21.9758C65.3053 22.3895 64.1079 23.0639 63.0797 23.958C62.0514 24.8522 61.2137 25.9476 60.6172 27.1779C60.0207 28.4082 59.6778 29.7479 59.6093 31.1158L50.7217 20.7125Z" fill="#A8062C"/>
<path d="M20.1249 50.5736C20.1237 47.9144 19.0856 45.3625 17.235 43.4692C15.3843 41.576 12.8698 40.4935 10.2346 40.4556L20.2335 30.499C20.2347 33.1585 21.2727 35.7108 23.1233 37.6045C24.9739 39.4982 27.4884 40.5813 30.1238 40.6199L20.1249 50.5736Z" fill="url(#paint1_linear_447_155)"/>
<path d="M34.8577 0.712646H25.2188C22.434 0.712646 20.1765 2.99055 20.1765 5.80048V15.5264C20.1765 18.3364 22.434 20.6143 25.2188 20.6143H34.8577C37.6425 20.6143 39.9 18.3364 39.9 15.5264V5.80048C39.9 2.99055 37.6425 0.712646 34.8577 0.712646Z" fill="#242DA8"/>
<path d="M54.5809 20.6636H44.942C42.1572 20.6636 39.8997 22.9415 39.8997 25.7514V35.4774C39.8997 38.2873 42.1572 40.5652 44.942 40.5652H54.5809C57.3657 40.5652 59.6232 38.2873 59.6232 35.4774V25.7514C59.6232 22.9415 57.3657 20.6636 54.5809 20.6636Z" fill="#D30837"/>
<path d="M76.387 1.69556H66.7481C63.9633 1.69556 61.7058 3.97346 61.7058 6.78339V16.5094C61.7058 19.3193 63.9633 21.5972 66.7481 21.5972H76.387C79.1718 21.5972 81.4293 19.3193 81.4293 16.5094V6.78339C81.4293 3.97346 79.1718 1.69556 76.387 1.69556Z" fill="#D30837"/>
<path d="M15.0855 20.6636H5.44659C2.66181 20.6636 0.404297 22.9415 0.404297 25.7514V35.4774C0.404297 38.2873 2.66181 40.5652 5.44659 40.5652H15.0855C17.8703 40.5652 20.1278 38.2873 20.1278 35.4774V25.7514C20.1278 22.9415 17.8703 20.6636 15.0855 20.6636Z" fill="#242DA8"/>
<path d="M34.6978 40.4526H25.0589C22.2741 40.4526 20.0166 42.7305 20.0166 45.5405V55.2664C20.0166 58.0764 22.2741 60.3543 25.0589 60.3543H34.6978C37.4826 60.3543 39.7401 58.0764 39.7401 55.2664V45.5405C39.7401 42.7305 37.4826 40.4526 34.6978 40.4526Z" fill="#D30837"/>
<path d="M76.3844 25.6995H67.9168C65.132 25.6995 62.8745 27.9774 62.8745 30.7873V55.2637C62.8745 58.0736 65.132 60.3515 67.9168 60.3515H76.3844C79.1692 60.3515 81.4267 58.0736 81.4267 55.2637V30.7873C81.4267 27.9774 79.1692 25.6995 76.3844 25.6995Z" fill="#242DA8"/>
</g>
<defs>
<linearGradient id="paint0_linear_447_155" x1="29.8725" y1="7.17282" x2="48.4025" y2="31.7777" gradientUnits="userSpaceOnUse">
<stop stop-color="#242DA9"/>
<stop offset="1" stop-color="#D30837"/>
</linearGradient>
<linearGradient id="paint1_linear_447_155" x1="9.96893" y1="30.6691" x2="31.1356" y2="50.7582" gradientUnits="userSpaceOnUse">
<stop stop-color="#242DA9"/>
<stop offset="1" stop-color="#D30837"/>
</linearGradient>
<clipPath id="clip0_447_155">
<rect width="81.0224" height="59.6415" fill="white" transform="translate(0.404297 0.712891)"/>
</clipPath>
</defs>
</svg>
